<?xml version="1.0" encoding="UTF-8" standalone="no"?>
<svg
   xmlns:dc="http://purl.org/dc/elements/1.1/"
   xmlns:cc="http://creativecommons.org/ns#"
   xmlns:rdf="http://www.w3.org/1999/02/22-rdf-syntax-ns#"
   xmlns:svg="http://www.w3.org/2000/svg"
   xmlns="http://www.w3.org/2000/svg"
   viewBox="0 0 633.77887 376.14126"
   height="376.14127"
   width="633.77887"
   xml:space="preserve"
   id="svg10"
   version="1.1"><metadata
     id="metadata16"><rdf:RDF><cc:Work
         rdf:about=""><dc:format>image/svg+xml</dc:format><dc:type
           rdf:resource="http://purl.org/dc/dcmitype/StillImage" /><dc:title></dc:title></cc:Work></rdf:RDF></metadata><defs
     id="defs14"><clipPath
       id="clipPath26"
       clipPathUnits="userSpaceOnUse"><path
         style="clip-rule:evenodd"
         id="path24"
         d="M 0,0 H 3508.3333 V 2482.8206 H 0 Z" /></clipPath><clipPath
       id="clipPath40"
       clipPathUnits="userSpaceOnUse"><path
         style="clip-rule:evenodd"
         id="path38"
         d="M 0,0 H 3508.3333 V 2479.8218 H 0 Z" /></clipPath></defs><g
     transform="matrix(0.31999998,0,0,0.31999998,-19.190881,-56.133328)"
     id="g18"><g
       id="g34"><g
         clip-path="url(#clipPath40)"
         id="g36"><g
           transform="matrix(2.9985754,0,0,2.9985754,1.4992877,1.4992877)"
           id="g42"><path
             id="path44"
             style="fill:none;stroke:#ffffff;stroke-width:1;stroke-linecap:butt;stroke-linejoin:miter;stroke-miterlimit:10;stroke-dasharray:none;stroke-opacity:1"
             d="M 80,270 V 400 H 193.63" /><path
             id="path46"
             style="fill:#000000;fill-opacity:1;fill-rule:nonzero;stroke:none"
             d="m 198.88,400 -7,3.5 1.75,-3.5 -1.75,-3.5 z" /><path
             id="path48"
             style="fill:#ffffff;stroke:#ffffff;stroke-width:1;stroke-linecap:butt;stroke-linejoin:miter;stroke-miterlimit:10;stroke-dasharray:none;stroke-opacity:1;fill-opacity:1"
             d="m 198.88,400 -7,3.5 1.75,-3.5 -1.75,-3.5 z" /><path
             id="path50"
             style="fill:none;stroke:#ffffff;stroke-width:1;stroke-linecap:butt;stroke-linejoin:miter;stroke-miterlimit:10;stroke-dasharray:none;stroke-opacity:1"
             d="M 80,190 V 168.91124 89 h 113.63" /><path
             id="path52"
             style="fill:#000000;fill-opacity:1;fill-rule:nonzero;stroke:none"
             d="m 198.88,89 -7,3.5 1.75,-3.5 -1.75,-3.5 z" /><path
             id="path54"
             style="fill:#ffffff;stroke:#ffffff;stroke-width:1;stroke-linecap:butt;stroke-linejoin:miter;stroke-miterlimit:10;stroke-dasharray:none;stroke-opacity:1;fill-opacity:1"
             d="m 198.88,89 -7,3.5 1.75,-3.5 -1.75,-3.5 z" /><path
             id="path56"
             style="fill:none;fill-opacity:1;fill-rule:nonzero;stroke:none"
             d="m 200,370 h 110 v 60 H 200 Z" /><path
             id="path58"
             style="fill:none;stroke:#ff0000;stroke-width:1;stroke-linecap:butt;stroke-linejoin:miter;stroke-miterlimit:10;stroke-dasharray:none;stroke-opacity:1"
             d="m 200,370 h 110 v 60 H 200 Z" /></g><g
           transform="matrix(2.9985754,0,0,2.9985754,635.698,1160.4487)"
           id="g60"><text
             id="text64"
             style="font-variant:normal;font-weight:normal;font-size:12px;font-family:Helvetica;-inkscape-font-specification:Helvetica;writing-mode:lr-tb;fill:#ff0000;fill-opacity:1;fill-rule:nonzero;stroke:none"
             transform="translate(0.640625,11)"><tspan
               id="tspan62"
               y="0"
               x="0 6 12.673828 19.347656 22.013672 25.347656 28.681641 35.355469 41.355469 44.689453 48.023438 54.023438 60.697266 70.693359 77.367188 80.033203">ﬁnal test sample</tspan></text>
<text
             id="text68"
             style="font-variant:normal;font-weight:normal;font-size:12px;font-family:Helvetica;-inkscape-font-specification:Helvetica;writing-mode:lr-tb;fill:#ff0000;fill-opacity:1;fill-rule:nonzero;stroke:none"
             transform="translate(18.328125,25)"><tspan
               id="tspan66"
               y="0"
               x="0 3.9960938 7.3300781 14.003906 20.677734 24.011719 27.345703 30.679688 37.353516 44.027344 47.361328">( 10 : 90 )</tspan></text>
</g><g
           transform="matrix(2.9985754,0,0,2.9985754,1.4992877,1.4992877)"
           id="g70"><path
             id="path72"
             style="fill:#ffffff;stroke:#ffffff;stroke-width:1;stroke-linecap:butt;stroke-linejoin:miter;stroke-miterlimit:10;stroke-dasharray:none;stroke-opacity:1;fill-opacity:1"
             d="m 310,88.5 h 43.63" /><path
             id="path74"
             style="fill:#ffffff;fill-opacity:1;fill-rule:nonzero;stroke:#ffffff;stroke-opacity:1"
             d="m 358.88,88.5 -7,3.5 1.75,-3.5 -1.75,-3.5 z" /><path
             id="path76"
             style="fill:none;stroke:#ffffff;stroke-width:1;stroke-linecap:butt;stroke-linejoin:miter;stroke-miterlimit:10;stroke-dasharray:none;stroke-opacity:1"
             d="m 358.88,88.5 -7,3.5 1.75,-3.5 -1.75,-3.5 z" /><path
             id="path78"
             style="fill:none;fill-opacity:1;fill-rule:nonzero;stroke:none"
             d="m 200,58.5 h 110 v 60 H 200 Z" /><path
             id="path80"
             style="fill:#ff0000;fill-opacity:1;fill-rule:nonzero;stroke:none"
             d="m 206,58 h 3 v 1 h -3 z m 6,0 h 3 v 1 h -3 z m 6,0 h 3 v 1 h -3 z m 6,0 h 3 v 1 h -3 z m 6,0 h 3 v 1 h -3 z m 6,0 h 3 v 1 h -3 z m 6,0 h 3 v 1 h -3 z m 6,0 h 3 v 1 h -3 z m 6,0 h 3 v 1 h -3 z m 6,0 h 3 v 1 h -3 z m 6,0 h 3 v 1 h -3 z m 6,0 h 3 v 1 h -3 z m 6,0 h 3 v 1 h -3 z m 6,0 h 3 v 1 h -3 z m 6,0 h 3 v 1 h -3 z m 6,0 h 3 v 1 h -3 z m 6,0 h 3 v 1 h -3 z m 6,0 h 2.5 v 1.5 h -1 v -1 H 310 V 59 h -2 z m 2.5,4.5 v 3 h -1 v -3 z m 0,6 v 3 h -1 v -3 z m 0,6 v 3 h -1 v -3 z m 0,6 v 3 h -1 v -3 z m 0,6 v 3 h -1 v -3 z m 0,6 v 3 h -1 v -3 z m 0,6 v 3 h -1 v -3 z m 0,6 v 3 h -1 v -3 z m 0,6 v 3 h -1 v -3 z m 0,6 V 119 H 309 v -1 h 1 v 0.5 h -0.5 v -2 z M 306,119 h -3 v -1 h 3 z m -6,0 h -3 v -1 h 3 z m -6,0 h -3 v -1 h 3 z m -6,0 h -3 v -1 h 3 z m -6,0 h -3 v -1 h 3 z m -6,0 h -3 v -1 h 3 z m -6,0 h -3 v -1 h 3 z m -6,0 h -3 v -1 h 3 z m -6,0 h -3 v -1 h 3 z m -6,0 h -3 v -1 h 3 z m -6,0 h -3 v -1 h 3 z m -6,0 h -3 v -1 h 3 z m -6,0 h -3 v -1 h 3 z m -6,0 h -3 v -1 h 3 z m -6,0 h -3 v -1 h 3 z m -6,0 h -3 v -1 h 3 z m -6,0 h -3 v -1 h 3 z m -6,0 h -3 v -1 h 3 z m -4.5,-2.5 v -3 h 1 v 3 z m 0,-6 v -3 h 1 v 3 z m 0,-6 v -3 h 1 v 3 z m 0,-6 v -3 h 1 v 3 z m 0,-6 v -3 h 1 v 3 z m 0,-6 v -3 h 1 v 3 z m 0,-6 v -3 h 1 v 3 z m 0,-6 v -3 h 1 v 3 z m 0,-6 v -3 h 1 v 3 z m 0,-6 v -3 h 1 v 3 z M 200,58 h 3 v 1 h -3 z" /></g><g
           transform="matrix(2.9985754,0,0,2.9985754,641.69513,227.89174)"
           id="g82"><text
             id="text86"
             style="font-variant:normal;font-weight:normal;font-size:12px;font-family:Helvetica;-inkscape-font-specification:Helvetica;writing-mode:lr-tb;fill:#ff0000;fill-opacity:1;fill-rule:nonzero;stroke:none"
             transform="translate(0.3125,11)"><tspan
               id="tspan84"
               y="0"
               x="0 3.3339844 7.3300781 14.003906 16.669922 23.34375 26.009766 32.683594 39.357422 42.691406 48.691406 55.365234 65.361328 72.035156 74.701172">training sample</tspan></text>
<text
             id="text90"
             style="font-variant:normal;font-weight:normal;font-size:12px;font-family:Helvetica;-inkscape-font-specification:Helvetica;writing-mode:lr-tb;fill:#ff0000;fill-opacity:1;fill-rule:nonzero;stroke:none"
             transform="translate(15.328125,25)"><tspan
               id="tspan88"
               y="0"
               x="0 3.9960938 7.3300781 14.003906 20.677734 24.011719 27.345703 30.679688 37.353516 44.027344 47.361328">( 10 : 90 )</tspan></text>
</g><g
           transform="matrix(2.9985754,0,0,2.9985754,1.4992877,1.4992877)"
           id="g92"><path
             id="path94"
             style="fill:none;stroke:#ffffff;stroke-width:1;stroke-linecap:butt;stroke-linejoin:miter;stroke-miterlimit:10;stroke-dasharray:none;stroke-opacity:1"
             d="m 565,119 v 44.63" /><path
             id="path96"
             style="fill:#000000;fill-opacity:1;fill-rule:nonzero;stroke:none"
             d="m 565,168.88 -3.5,-7 3.5,1.75 3.5,-1.75 z" /><path
             id="path98"
             style="fill:#ffffff;stroke:#ffffff;stroke-width:1;stroke-linecap:butt;stroke-linejoin:miter;stroke-miterlimit:10;stroke-dasharray:none;stroke-opacity:1;fill-opacity:1"
             d="m 565,168.88 -3.5,-7 3.5,1.75 3.5,-1.75 z" /><path
             id="path100"
             style="fill:none;fill-opacity:1;fill-rule:nonzero;stroke:none"
             d="m 500,58.5 h 130 v 60 H 500 Z" /><path
             id="path102"
             style="fill:none;stroke:#ff0000;stroke-width:1;stroke-linecap:butt;stroke-linejoin:miter;stroke-miterlimit:10;stroke-dasharray:none;stroke-opacity:1"
             d="m 500,58.5 h 130 v 60 H 500 Z" /></g><g
           transform="matrix(2.9985754,0,0,2.9985754,1571.2535,206.9017)"
           id="g104"><text
             id="text108"
             style="font-variant:normal;font-weight:normal;font-size:12px;font-family:Helvetica;-inkscape-font-specification:Helvetica;writing-mode:lr-tb;fill:#ff0000;fill-opacity:1;fill-rule:nonzero;stroke:none"
             transform="translate(16.640625,11)"><tspan
               id="tspan106"
               y="0"
               x="0 6.6738281 13.347656 16.013672 22.6875 28.6875 32.021484 38.695312 45.369141">adjusted </tspan></text>
<text
             id="text112"
             style="font-variant:normal;font-weight:normal;font-size:12px;font-family:Helvetica;-inkscape-font-specification:Helvetica;writing-mode:lr-tb;fill:#ff0000;fill-opacity:1;fill-rule:nonzero;stroke:none"
             transform="translate(0.3125,25)"><tspan
               id="tspan110"
               y="0"
               x="0 3.3339844 7.3300781 14.003906 16.669922 23.34375 26.009766 32.683594 39.357422 42.691406 48.691406 55.365234 65.361328 72.035156 74.701172">training sample</tspan></text>
<text
             id="text116"
             style="font-variant:normal;font-weight:normal;font-size:12px;font-family:Helvetica;-inkscape-font-specification:Helvetica;writing-mode:lr-tb;fill:#ff0000;fill-opacity:1;fill-rule:nonzero;stroke:none"
             transform="translate(15.328125,39)"><tspan
               id="tspan114"
               y="0"
               x="0 3.9960938 7.3300781 14.003906 20.677734 24.011719 27.345703 30.679688 37.353516 44.027344 47.361328">( 50 : 50 )</tspan></text>
</g><g
           style="fill:none"
           transform="matrix(2.9985754,0,0,2.9985754,1.4992877,1.4992877)"
           id="g118"><path
             id="path120"
             style="fill:none;stroke:#ffffff;stroke-width:1;stroke-linecap:butt;stroke-linejoin:miter;stroke-miterlimit:10;stroke-dasharray:none;stroke-opacity:1"
             d="M 449.98999,89 H 475 493.63" /><path
             id="path122"
             style="fill:none;fill-opacity:1;fill-rule:nonzero;stroke:none"
             d="m 498.88,89 -7,3.5 1.75,-3.5 -1.75,-3.5 z" /><path
             id="path124"
             style="fill:#ffffff;stroke:#ffffff;stroke-width:1;stroke-linecap:butt;stroke-linejoin:miter;stroke-miterlimit:10;stroke-dasharray:none;stroke-opacity:1;fill-opacity:1"
             d="m 498.88,89 -7,3.5 1.75,-3.5 -1.75,-3.5 z" /><path
             id="path126"
             style="fill:none;fill-opacity:1;fill-rule:nonzero;stroke:none"
             d="m 450,88.5 c 3e-5,0.982536 -0.0722,1.9627 -0.21664,2.940506 -0.14444,0.977806 -0.36045,1.94854 -0.64801,2.912193 -0.28751,0.963661 -0.64518,1.915604 -1.073,2.855835 -0.42786,0.940224 -0.9238,1.864212 -1.4878,2.771958 -0.56399,0.907748 -1.19335,1.794878 -1.88809,2.661398 -0.69473,0.86653 -1.45154,1.70825 -2.27038,2.5252 -0.81876,0.81696 -1.69565,1.60519 -2.63062,2.3647 -0.93497,0.75952 -1.92352,1.48664 -2.96567,2.1814 -1.04214,0.69475 -2.13284,1.3538 -3.27209,1.97711 -1.13925,0.62332 -2.32163,1.20791 -3.54706,1.75377 -1.2254,0.54587 -2.48801,1.05038 -3.78778,1.51356 -1.29977,0.46316 -2.63049,0.88274 -3.99213,1.25873 -1.3616,0.37601 -2.74759,0.70662 -4.15792,0.99184 -1.41037,0.28522 -2.83829,0.52367 -4.28379,0.71535 -1.44546,0.19168 -2.90152,0.33569 -4.36822,0.43199 -1.46671,0.0963 -2.93698,0.14446 -4.4108,0.14446 -1.47379,0 -2.94403,-0.0482 -4.41074,-0.14446 -1.4667,-0.0963 -2.92282,-0.24031 -4.36834,-0.43199 -1.44547,-0.19168 -2.87339,-0.43013 -4.28376,-0.71535 -1.41037,-0.28522 -2.79635,-0.61583 -4.15795,-0.99184 -1.36161,-0.37599 -2.6923,-0.79557 -3.99207,-1.25873 -1.29977,-0.46318 -2.56241,-0.96769 -3.78784,-1.51356 -1.22544,-0.54586 -2.40778,-1.13045 -3.54703,-1.75377 -1.13925,-0.62331 -2.22995,-1.28236 -3.27209,-1.97711 -1.04215,-0.69476 -2.0307,-1.42189 -2.96567,-2.18141 -0.93497,-0.7595 -1.81186,-1.54773 -2.63068,-2.36469 -0.81878,-0.81695 -1.57553,-1.65867 -2.27026,-2.52519 -0.69477,-0.86653 -1.32416,-1.75366 -1.88815,-2.661408 -0.564,-0.907746 -1.05991,-1.831734 -1.48774,-2.771965 -0.42779,-0.940224 -0.78546,-1.892167 -1.07303,-2.855828 -0.2875,-0.963653 -0.50347,-1.934379 -0.64794,-2.912185 C 360.07224,90.462708 360,89.482536 360,88.5 c 0,-0.982536 0.0722,-1.962708 0.21667,-2.940514 0.14451,-0.977806 0.36048,-1.948539 0.64798,-2.912201 0.28757,-0.963653 0.64524,-1.915596 1.07303,-2.855819 0.42783,-0.940232 0.92374,-1.86422 1.48774,-2.771973 0.56399,-0.907738 1.19338,-1.794868 1.88815,-2.661392 0.69473,-0.866524 1.45151,-1.70826 2.27029,-2.525215 0.81882,-0.816948 1.69568,-1.605179 2.63065,-2.364693 0.93497,-0.759514 1.92352,-1.486649 2.96567,-2.181404 1.04214,-0.694756 2.13284,-1.35379 3.27209,-1.977104 1.13925,-0.623314 2.32159,-1.207909 3.54703,-1.753781 1.22543,-0.545868 2.48807,-1.05038 3.78784,-1.513542 1.29977,-0.463169 2.63046,-0.882751 3.99207,-1.258751 1.3616,-0.375999 2.74758,-0.706608 4.15795,-0.991825 1.41037,-0.285213 2.83829,-0.523662 4.28376,-0.715347 1.44552,-0.191677 2.90164,-0.335671 4.36834,-0.431976 1.46671,-0.09631 2.93695,-0.144459 4.41074,-0.144463 1.47382,4e-6 2.94409,0.04816 4.4108,0.144463 1.4667,0.09631 2.92276,0.240299 4.36822,0.431976 1.4455,0.191685 2.87342,0.430134 4.28375,0.715347 1.41037,0.285214 2.79636,0.615822 4.15796,0.991821 1.36164,0.376004 2.69236,0.795586 3.99213,1.258755 1.29977,0.463162 2.56238,0.967674 3.78778,1.513542 1.22543,0.545872 2.40781,1.130467 3.54706,1.753781 1.13925,0.623314 2.22995,1.282348 3.27209,1.977104 1.04215,0.694755 2.03067,1.42189 2.96564,2.181404 0.935,0.759514 1.81189,1.547745 2.63065,2.364693 0.81884,0.816955 1.57565,1.658691 2.27038,2.525215 0.69474,0.866524 1.3241,1.753654 1.88809,2.661392 0.564,0.907753 1.05994,1.831741 1.48777,2.771965 0.42782,0.940231 0.78549,1.892174 1.07299,2.855827 0.28757,0.963662 0.50358,1.934395 0.64802,2.912201 0.14447,0.977806 0.2167,1.957978 0.21667,2.940514 z" /><path
             id="path128"
             style="fill:none;stroke:#ffffff;stroke-width:1;stroke-linecap:butt;stroke-linejoin:miter;stroke-miterlimit:10;stroke-dasharray:none;stroke-opacity:1"
             d="m 450,88.5 c 3e-5,0.982536 -0.0722,1.9627 -0.21664,2.940506 -0.14444,0.977806 -0.36045,1.94854 -0.64801,2.912193 -0.28751,0.963661 -0.64518,1.915604 -1.073,2.855835 -0.42786,0.940224 -0.9238,1.864212 -1.4878,2.771958 -0.56399,0.907748 -1.19335,1.794878 -1.88809,2.661398 -0.69473,0.86653 -1.45154,1.70825 -2.27038,2.5252 -0.81876,0.81696 -1.69565,1.60519 -2.63062,2.3647 -0.93497,0.75952 -1.92352,1.48664 -2.96567,2.1814 -1.04214,0.69475 -2.13284,1.3538 -3.27209,1.97711 -1.13925,0.62332 -2.32163,1.20791 -3.54706,1.75377 -1.2254,0.54587 -2.48801,1.05038 -3.78778,1.51356 -1.29977,0.46316 -2.63049,0.88274 -3.99213,1.25873 -1.3616,0.37601 -2.74759,0.70662 -4.15792,0.99184 -1.41037,0.28522 -2.83829,0.52367 -4.28379,0.71535 -1.44546,0.19168 -2.90152,0.33569 -4.36822,0.43199 -1.46671,0.0963 -2.93698,0.14446 -4.4108,0.14446 -1.47379,0 -2.94403,-0.0482 -4.41074,-0.14446 -1.4667,-0.0963 -2.92282,-0.24031 -4.36834,-0.43199 -1.44547,-0.19168 -2.87339,-0.43013 -4.28376,-0.71535 -1.41037,-0.28522 -2.79635,-0.61583 -4.15795,-0.99184 -1.36161,-0.37599 -2.6923,-0.79557 -3.99207,-1.25873 -1.29977,-0.46318 -2.56241,-0.96769 -3.78784,-1.51356 -1.22544,-0.54586 -2.40778,-1.13045 -3.54703,-1.75377 -1.13925,-0.62331 -2.22995,-1.28236 -3.27209,-1.97711 -1.04215,-0.69476 -2.0307,-1.42189 -2.96567,-2.18141 -0.93497,-0.7595 -1.81186,-1.54773 -2.63068,-2.36469 -0.81878,-0.81695 -1.57553,-1.65867 -2.27026,-2.52519 -0.69477,-0.86653 -1.32416,-1.75366 -1.88815,-2.661408 -0.564,-0.907746 -1.05991,-1.831734 -1.48774,-2.771965 -0.42779,-0.940224 -0.78546,-1.892167 -1.07303,-2.855828 -0.2875,-0.963653 -0.50347,-1.934379 -0.64794,-2.912185 C 360.07224,90.462708 360,89.482536 360,88.5 c 0,-0.982536 0.0722,-1.962708 0.21667,-2.940514 0.14451,-0.977806 0.36048,-1.948539 0.64798,-2.912201 0.28757,-0.963653 0.64524,-1.915596 1.07303,-2.855819 0.42783,-0.940232 0.92374,-1.86422 1.48774,-2.771973 0.56399,-0.907738 1.19338,-1.794868 1.88815,-2.661392 0.69473,-0.866524 1.45151,-1.70826 2.27029,-2.525215 0.81882,-0.816948 1.69568,-1.605179 2.63065,-2.364693 0.93497,-0.759514 1.92352,-1.486649 2.96567,-2.181404 1.04214,-0.694756 2.13284,-1.35379 3.27209,-1.977104 1.13925,-0.623314 2.32159,-1.207909 3.54703,-1.753781 1.22543,-0.545868 2.48807,-1.05038 3.78784,-1.513542 1.29977,-0.463169 2.63046,-0.882751 3.99207,-1.258751 1.3616,-0.375999 2.74758,-0.706608 4.15795,-0.991825 1.41037,-0.285213 2.83829,-0.523662 4.28376,-0.715347 1.44552,-0.191677 2.90164,-0.335671 4.36834,-0.431976 1.46671,-0.09631 2.93695,-0.144459 4.41074,-0.144463 1.47382,4e-6 2.94409,0.04816 4.4108,0.144463 1.4667,0.09631 2.92276,0.240299 4.36822,0.431976 1.4455,0.191685 2.87342,0.430134 4.28375,0.715347 1.41037,0.285214 2.79636,0.615822 4.15796,0.991821 1.36164,0.376004 2.69236,0.795586 3.99213,1.258755 1.29977,0.463162 2.56238,0.967674 3.78778,1.513542 1.22543,0.545872 2.40781,1.130467 3.54706,1.753781 1.13925,0.623314 2.22995,1.282348 3.27209,1.977104 1.04215,0.694755 2.03067,1.42189 2.96564,2.181404 0.935,0.759514 1.81189,1.547745 2.63065,2.364693 0.81884,0.816955 1.57565,1.658691 2.27038,2.525215 0.69474,0.866524 1.3241,1.753654 1.88809,2.661392 0.564,0.907753 1.05994,1.831741 1.48777,2.771965 0.42782,0.940231 0.78549,1.892174 1.07299,2.855827 0.28757,0.963662 0.50358,1.934395 0.64802,2.912201 0.14447,0.977806 0.2167,1.957978 0.21667,2.940514 z" /></g><g
           transform="matrix(2.9985754,0,0,2.9985754,1115.4701,227.89174)"
           id="g130"><path
             id="path132"
             style="fill:none;fill-opacity:1;fill-rule:nonzero;stroke:none;stroke-opacity:1"
             d="M 0,1 H 66 V 14 H 0 Z" /><text
             id="text136"
             style="font-variant:normal;font-weight:normal;font-size:11px;font-family:Helvetica;-inkscape-font-specification:Helvetica;writing-mode:lr-tb;fill:#ffffff;fill-opacity:1;fill-rule:nonzero;stroke:none;stroke-opacity:1;"
             transform="translate(0.28125,11)"><tspan
               id="tspan134"
               y="0"
               x="0 6.1176758 9.7807617 15.898438 22.016113 25.072266 28.735352 34.853027 40.970703 47.088379 53.206055 62.369141">drop random </tspan></text>
<path
             id="path138"
             style="fill:none;fill-opacity:1;fill-rule:nonzero;stroke:none"
             d="M 15,15 H 51 V 28 H 15 Z" /><text
             id="text142"
             style="font-variant:normal;font-weight:normal;font-size:11px;font-family:Helvetica;-inkscape-font-specification:Helvetica;writing-mode:lr-tb;fill:#ffffff;fill-opacity:1;fill-rule:nonzero;stroke:none;"
             transform="translate(14.65625,25)"><tspan
               id="tspan140"
               y="0"
               x="0 6.1176758 12.235352 15.898438 21.398438 25.061523 31.179199">no-ﬁres</tspan></text>
</g><g
           style="fill:none;stroke:#ffffff;stroke-opacity:1;fill-opacity:1"
           transform="scale(2.9985754)"
           id="g144"><path
             id="path146"
             style="fill:none;fill-opacity:1;fill-rule:nonzero;stroke:#ffffff;stroke-opacity:1"
             d="m 468,170 h 194 c 1.18188,2e-5 2.35242,0.1153 3.5116,0.34586 1.15918,0.23057 2.28473,0.572 3.37664,1.02429 1.09186,0.45228 2.12922,1.00676 3.11194,1.66339 0.98273,0.65663 1.89197,1.4028 2.72773,2.23852 0.83575,0.83573 1.5819,1.74494 2.23852,2.72765 0.65662,0.98271 1.21106,2.02003 1.66333,3.11197 0.45233,1.09193 0.79376,2.21748 1.02429,3.37668 C 679.8847,185.64755 680,186.8181 680,188 v 84 c 0,1.18185 -0.1153,2.35239 -0.34595,3.5116 -0.23053,1.15918 -0.57196,2.28473 -1.02429,3.37668 -0.45227,1.09191 -1.00671,2.12924 -1.66333,3.11193 -0.65662,0.9827 -1.40277,1.89194 -2.23852,2.7277 -0.83576,0.83572 -1.745,1.58187 -2.72773,2.23852 -0.98272,0.65665 -2.02008,1.21109 -3.11194,1.66339 -1.09191,0.45227 -2.21746,0.7937 -3.37664,1.02429 C 664.35242,289.8847 663.18188,290 662,290 H 468 c -1.18192,0 -2.35245,-0.1153 -3.51166,-0.34589 -1.15918,-0.23059 -2.28473,-0.57202 -3.37668,-1.02429 -1.09195,-0.4523 -2.12927,-1.00674 -3.11197,-1.66339 -0.98269,-0.65665 -1.8919,-1.4028 -2.72763,-2.23852 -0.83572,-0.83576 -1.5819,-1.745 -2.23855,-2.7277 -0.65665,-0.98269 -1.21109,-2.02002 -1.66336,-3.11193 -0.4523,-1.09195 -0.79373,-2.2175 -1.02429,-3.37668 C 450.1153,274.35239 450,273.18185 450,272 v -84 c 0,-1.1819 0.1153,-2.35245 0.34586,-3.51164 0.23056,-1.1592 0.57199,-2.28475 1.02429,-3.37668 0.45227,-1.09194 1.00671,-2.12926 1.66336,-3.11197 0.65665,-0.98271 1.40283,-1.89192 2.23855,-2.72765 0.83573,-0.83572 1.74494,-1.5819 2.72763,-2.23854 0.9827,-0.65663 2.02002,-1.21109 3.11197,-1.66337 1.09195,-0.45229 2.2175,-0.79372 3.37668,-1.02429 C 465.64755,170.1153 466.81808,170.00002 468,170 Z" /><path
             id="path148"
             style="fill:none;stroke:#ffffff;stroke-width:1;stroke-linecap:butt;stroke-linejoin:miter;stroke-miterlimit:10;stroke-dasharray:none;stroke-opacity:1;fill-opacity:1"
             d="m 468,170 h 194 c 1.18188,2e-5 2.35242,0.1153 3.5116,0.34586 1.15918,0.23057 2.28473,0.572 3.37664,1.02429 1.09186,0.45228 2.12922,1.00676 3.11194,1.66339 0.98273,0.65663 1.89197,1.4028 2.72773,2.23852 0.83575,0.83573 1.5819,1.74494 2.23852,2.72765 0.65662,0.98271 1.21106,2.02003 1.66333,3.11197 0.45233,1.09193 0.79376,2.21748 1.02429,3.37668 C 679.8847,185.64755 680,186.8181 680,188 v 84 c 0,1.18185 -0.1153,2.35239 -0.34595,3.5116 -0.23053,1.15918 -0.57196,2.28473 -1.02429,3.37668 -0.45227,1.09191 -1.00671,2.12924 -1.66333,3.11193 -0.65662,0.9827 -1.40277,1.89194 -2.23852,2.7277 -0.83576,0.83572 -1.745,1.58187 -2.72773,2.23852 -0.98272,0.65665 -2.02008,1.21109 -3.11194,1.66339 -1.09191,0.45227 -2.21746,0.7937 -3.37664,1.02429 C 664.35242,289.8847 663.18188,290 662,290 H 468 c -1.18192,0 -2.35245,-0.1153 -3.51166,-0.34589 -1.15918,-0.23059 -2.28473,-0.57202 -3.37668,-1.02429 -1.09195,-0.4523 -2.12927,-1.00674 -3.11197,-1.66339 -0.98269,-0.65665 -1.8919,-1.4028 -2.72763,-2.23852 -0.83572,-0.83576 -1.5819,-1.745 -2.23855,-2.7277 -0.65665,-0.98269 -1.21109,-2.02002 -1.66336,-3.11193 -0.4523,-1.09195 -0.79373,-2.2175 -1.02429,-3.37668 C 450.1153,274.35239 450,273.18185 450,272 v -84 c 0,-1.1819 0.1153,-2.35245 0.34586,-3.51164 0.23056,-1.1592 0.57199,-2.28475 1.02429,-3.37668 0.45227,-1.09194 1.00671,-2.12926 1.66336,-3.11197 0.65665,-0.98271 1.40283,-1.89192 2.23855,-2.72765 0.83573,-0.83572 1.74494,-1.5819 2.72763,-2.23854 0.9827,-0.65663 2.02002,-1.21109 3.11197,-1.66337 1.09195,-0.45229 2.2175,-0.79372 3.37668,-1.02429 C 465.64755,170.1153 466.81808,170.00002 468,170 Z" /></g><g
           style="fill:#ffffff;fill-opacity:1"
           transform="matrix(2.9985754,0,0,2.9985754,1457.3076,656.68805)"
           id="g150"><text
             id="text154"
             style="font-variant:normal;font-weight:bold;font-size:20px;font-family:Helvetica;-inkscape-font-specification:Helvetica-Bold;writing-mode:lr-tb;fill:#ffffff;fill-opacity:1;fill-rule:nonzero;stroke:none"
             transform="translate(0.140625,18)"><tspan
               id="tspan152"
               y="0"
               x="0 14.443359 22.226562 34.443359 45.566406 56.689453 63.349609 74.472656 85.595703 91.152344 96.708984 108.92578 120.04883 126.70898 132.26562 144.48242">Cross-validation</tspan></text>
</g><g
           transform="matrix(2.9985754,0,0,2.9985754,1.4992877,1.4992877)"
           id="g156"><path
             id="path158"
             style="fill:none;fill-opacity:1;fill-rule:nonzero;stroke:#ffffff;stroke-opacity:1"
             d="m 205,200 c -40,0 -50,30 -18,36 -32,13.2 4,42 30,30 18,24 78,24 98,0 40,0 40,-24 15,-36 25,-24 -15,-48 -50,-36 -25,-18 -65,-18 -75,6 z" /><path
             id="path160"
             style="fill:none;stroke:#ffffff;stroke-width:1;stroke-linecap:butt;stroke-linejoin:miter;stroke-miterlimit:10;stroke-dasharray:none;stroke-opacity:1"
             d="m 205,200 c -40,0 -50,30 -18,36 -32,13.2 4,42 30,30 18,24 78,24 98,0 40,0 40,-24 15,-36 9.39557,-9.01975 9.61036,-18.0395 4.36012,-25.14828 -4.73496,-6.41111 -13.91487,-11.26794 -24.81414,-13.16878 C 300.37352,190.08327 289.98336,190.57713 280,194 c -25,-18 -65,-18 -75,6 z" /></g><g
           transform="matrix(2.9985754,0,0,2.9985754,596.71649,626.70227)"
           id="g162"><text
             id="text166"
             style="font-variant:normal;font-weight:normal;font-size:12px;font-family:Helvetica;-inkscape-font-specification:Helvetica;writing-mode:lr-tb;fill:#ffffff;fill-opacity:1;fill-rule:nonzero;stroke:none;"
             transform="translate(18.3125,11)"><tspan
               id="tspan164"
               y="0"
               x="0 6.6738281 13.347656 16.681641 19.347656 29.34375 36.017578 38.683594 42.017578 48.017578 54.691406 58.025391 61.359375 64.025391 70.699219">optimal setting</tspan></text>
<text
             id="text170"
             style="font-variant:normal;font-weight:normal;font-size:12px;font-family:Helvetica;-inkscape-font-specification:Helvetica;writing-mode:lr-tb;fill:#ffffff;fill-opacity:1;fill-rule:nonzero;stroke:none;"
             transform="translate(0.828125,39)"><tspan
               id="tspan168"
               y="0"
               x="0 3.9960938 7.3300781 9.9960938 16.669922 25.335938 32.009766 38.009766 41.34375 44.677734 53.34375">( lowest CV</tspan></text>
<text
             id="text174"
             style="font-variant:normal;font-weight:normal;font-size:10px;font-family:Helvetica;-inkscape-font-specification:Helvetica;writing-mode:lr-tb;fill:#ffffff;fill-opacity:1;fill-rule:nonzero;stroke:none;"
             transform="translate(62.171875,42)"><tspan
               style="fill:#ffffff;fill-opacity:1;"
               id="tspan172"
               y="0"
               x="0">k</tspan></text>
<text
             id="text178"
             style="font-variant:normal;font-weight:normal;font-size:12px;font-family:Helvetica;-inkscape-font-specification:Helvetica;writing-mode:lr-tb;fill:#ffffff;fill-opacity:1;fill-rule:nonzero;stroke:none;"
             transform="translate(67.171875,39)"><tspan
               id="tspan176"
               y="0"
               x="0 3.3339844 10.007812 16.007812 22.681641 26.677734 33.351562 36.017578 38.683594 42.017578"> overall )</tspan></text>
</g><g
           style="fill:#ffffff;fill-opacity:1"
           transform="matrix(2.9985754,0,0,2.9985754,1.4992877,1.4992877)"
           id="g180"><path
             id="path182"
             style="fill:none;fill-opacity:1;fill-rule:nonzero;stroke:none"
             d="m 432,210 v 38 h -49.48999 v 10.5 L 355.5,229 382.51001,199.5 V 210 Z" /><path
             id="path184"
             style="fill:none;stroke:#ffffff;stroke-width:1;stroke-linecap:butt;stroke-linejoin:miter;stroke-miterlimit:10;stroke-dasharray:none;stroke-opacity:1;fill-opacity:1"
             d="m 432,210 v 38 h -49.48999 v 10.5 L 355.5,229 382.51001,199.5 V 210 Z" /><path
             id="path186"
             style="fill:none;stroke:#ffffff;stroke-width:1;stroke-linecap:butt;stroke-linejoin:miter;stroke-miterlimit:10;stroke-dasharray:none;stroke-opacity:1;fill-opacity:1"
             d="m 232,301.5 h 44 v 17.98999 h 21.5 L 254,348.5 210.5,319.48999 H 232 Z" /></g><g
           transform="matrix(2.9985754,0,0,2.9985754,719.65808,959.54413)"
           id="g188"><path
             id="path190"
             style="fill:none;fill-opacity:1;fill-rule:nonzero;stroke:none"
             d="M 0,0 H 29 V 13 H 0 Z" /><text
             id="text194"
             style="font-variant:normal;font-weight:bold;font-size:11px;font-family:Helvetica;-inkscape-font-specification:Helvetica-Bold;writing-mode:lr-tb;fill:#ffffff;fill-opacity:1;fill-rule:nonzero;stroke:none;"
             transform="translate(0,10)"><tspan
               id="tspan192"
               y="0"
               x="0 6.1176758 12.836914 19.556152 22.612305">apply</tspan></text>
</g><g
           transform="scale(2.9985754)"
           id="g196"><path
             id="path198"
             style="fill:none;fill-opacity:1;fill-rule:nonzero;stroke:none"
             d="m 430,350 h 50 l 30,30 v 70 h -80 z" /><path
             id="path200"
             style="fill:none;stroke:#00994d;stroke-width:1;stroke-linecap:butt;stroke-linejoin:miter;stroke-miterlimit:10;stroke-dasharray:none;stroke-opacity:1"
             d="m 430,350 h 50 l 30,30 v 70 h -80 z" /><path
             id="path202"
             style="fill:#000000;fill-opacity:0.05100002;fill-rule:nonzero;stroke:none"
             d="m 480,350 v 30 h 30 z" /><path
             id="path204"
             style="fill:none;stroke:#00994d;stroke-width:1;stroke-linecap:butt;stroke-linejoin:miter;stroke-miterlimit:10;stroke-dasharray:none;stroke-opacity:1"
             d="m 480,350 v 30 h 30" /></g><g
           transform="matrix(2.9985754,0,0,2.9985754,1337.3646,1112.4714)"
           id="g206"><text
             id="text210"
             style="font-variant:normal;font-weight:bold;font-size:17px;font-family:Helvetica;-inkscape-font-specification:Helvetica-Bold;writing-mode:lr-tb;fill:#00994d;fill-opacity:1;fill-rule:nonzero;stroke:none"
             transform="translate(6.015625,36)"><tspan
               id="tspan208"
               y="0"
               x="0 10.384277 20.768555 30.223145">ﬁnal</tspan></text>
<text
             id="text214"
             style="font-variant:normal;font-weight:bold;font-size:17px;font-family:Helvetica;-inkscape-font-specification:Helvetica-Bold;writing-mode:lr-tb;fill:#00994d;fill-opacity:1;fill-rule:nonzero;stroke:none"
             transform="translate(0.34375,56)"><tspan
               id="tspan212"
               y="0"
               x="0 6.6157227 16.070312 25.524902 35.90918 40.632324">result</tspan></text>
</g><g
           transform="matrix(2.9985754,0,0,2.9985754,1.4992877,1.4992877)"
           id="g216"><path
             id="path218"
             style="fill:none;stroke:#ffffff;stroke-width:1;stroke-linecap:butt;stroke-linejoin:miter;stroke-miterlimit:10;stroke-dasharray:none;stroke-opacity:1"
             d="M 310,400 H 419.89999" /><path
             id="path220"
             style="fill:#ffffff;fill-opacity:1;fill-rule:nonzero;stroke:#ffffff;stroke-opacity:1"
             d="m 426.64999,400 -9,4.5 2.25,-4.5 -2.25,-4.5 z" /><path
             id="path222"
             style="fill:#ffffff;stroke:#ffffff;stroke-width:1;stroke-linecap:butt;stroke-linejoin:miter;stroke-miterlimit:10;stroke-dasharray:none;stroke-opacity:1;fill-opacity:1"
             d="m 426.64999,400 -9,4.5 2.25,-4.5 -2.25,-4.5 z" /><path
             id="path224"
             style="fill:none;fill-opacity:1;fill-rule:nonzero;stroke:none"
             d="m 140,230 c 1e-5,1.31006 -0.0963,2.61696 -0.28891,3.9207 -0.19261,1.30373 -0.48061,2.59802 -0.86398,3.88289 -0.38337,1.28488 -0.86026,2.55414 -1.4307,3.80778 -0.57043,1.25364 -1.23166,2.48561 -1.98366,3.69593 -0.75199,1.21034 -1.59115,2.39319 -2.51748,3.54855 -0.92632,1.15535 -1.93537,2.27766 -3.02712,3.36691 -1.09172,1.08928 -2.26091,2.14028 -3.50754,3.15296 -1.24662,1.01268 -2.56469,1.98219 -3.95421,2.90852 -1.38951,0.92636 -2.84378,1.80505 -4.36281,2.63614 -1.51902,0.83108 -3.09549,1.61053 -4.72939,2.33835 -1.6339,0.72781 -3.31737,1.40051 -5.05041,2.01809 -1.73304,0.61753 -3.5073,1.17698 -5.3228,1.67832 -1.81549,0.50137 -3.663459,0.94217 -5.543914,1.32245 -1.880463,0.38031 -3.784355,0.69824 -5.71167,0.95379 -1.927315,0.25559 -3.868767,0.44761 -5.824371,0.57602 C 83.925423,269.93579 81.96508,270 80,270 c -1.965073,0 -3.925415,-0.0642 -5.88102,-0.1926 -1.955619,-0.12841 -3.897087,-0.32043 -5.824401,-0.57602 -1.927315,-0.25555 -3.831208,-0.57348 -5.711663,-0.95379 -1.880459,-0.38028 -3.728431,-0.82108 -5.543926,-1.32245 -1.815487,-0.50134 -3.589752,-1.06079 -5.322796,-1.67832 -1.73304,-0.61758 -3.416511,-1.29028 -5.050411,-2.01809 -1.6339,-0.72782 -3.210358,-1.50727 -4.729382,-2.33835 -1.519024,-0.83109 -2.973293,-1.70978 -4.362812,-2.63614 -1.389515,-0.92633 -2.707588,-1.89584 -3.954219,-2.90852 -1.246632,-1.01268 -2.415814,-2.06368 -3.507552,-3.15296 -1.091736,-1.08925 -2.100769,-2.21156 -3.027097,-3.36691 -0.926331,-1.15536 -1.765498,-2.33821 -2.517498,-3.54855 -0.752001,-1.21032 -1.413216,-2.44229 -1.983647,-3.69594 -0.570429,-1.25365 -1.047329,-2.5229 -1.430696,-3.80779 -0.383366,-1.28485 -0.671355,-2.57914 -0.863964,-3.88287 C 20.096306,232.61696 20.000002,231.31006 20,230 c 2e-6,-1.31004 0.09631,-2.61693 0.288916,-3.92068 0.192609,-1.30375 0.480598,-2.59806 0.863964,-3.88295 0.383367,-1.28489 0.860267,-2.55414 1.430696,-3.80777 0.570431,-1.25365 1.231646,-2.48563 1.983647,-3.69597 0.752,-1.21031 1.591167,-2.39316 2.517498,-3.54851 0.92633,-1.15537 1.935363,-2.27768 3.027099,-3.36696 1.091738,-1.08925 2.260922,-2.14021 3.50755,-3.15289 1.246631,-1.01268 2.564704,-1.98221 3.954219,-2.90856 1.389519,-0.92633 2.843788,-1.80503 4.362809,-2.63614 1.519023,-0.83108 3.095481,-1.61055 4.729381,-2.33839 1.633904,-0.7278 3.317375,-1.40048 5.050415,-2.01804 1.733044,-0.61755 3.507309,-1.177 5.322796,-1.67832 1.815495,-0.50133 3.663467,-0.94213 5.543926,-1.32241 1.880455,-0.38029 3.78434,-0.69822 5.711655,-0.95382 1.927322,-0.25557 3.86879,-0.44756 5.824409,-0.57596 C 76.074585,190.06421 78.034927,190 80,190 c 1.96508,0 3.925423,0.0642 5.881035,0.19261 1.955604,0.12842 3.897064,0.32041 5.824379,0.57598 1.927315,0.25558 3.831207,0.57351 5.711662,0.95379 1.880455,0.3803 3.728424,0.82109 5.543914,1.32242 1.8155,0.50133 3.58976,1.06078 5.3228,1.67834 1.73304,0.61754 3.41651,1.29023 5.0504,2.01804 1.6339,0.72784 3.21037,1.50731 4.7294,2.33839 1.51903,0.83111 2.9733,1.70981 4.36281,2.63614 1.38952,0.92635 2.70759,1.89588 3.95422,2.90856 1.24663,1.01268 2.41581,2.06364 3.50753,3.15289 1.09175,1.08928 2.1008,2.21159 3.02712,3.36696 0.92633,1.15536 1.76549,2.33821 2.51748,3.54852 0.752,1.21033 1.41323,2.44231 1.98366,3.69596 0.57044,1.25363 1.04733,2.52288 1.4307,3.80777 0.38337,1.28489 0.67137,2.5792 0.86398,3.88295 0.19261,1.30375 0.28892,2.61064 0.28891,3.92068 z" /><path
             id="path226"
             style="fill:none;stroke:#ff0000;stroke-width:1;stroke-linecap:butt;stroke-linejoin:miter;stroke-miterlimit:10;stroke-dasharray:none;stroke-opacity:1"
             d="m 140,230 c 1e-5,1.31006 -0.0963,2.61696 -0.28891,3.9207 -0.19261,1.30373 -0.48061,2.59802 -0.86398,3.88289 -0.38337,1.28488 -0.86026,2.55414 -1.4307,3.80778 -0.57043,1.25364 -1.23166,2.48561 -1.98366,3.69593 -0.75199,1.21034 -1.59115,2.39319 -2.51748,3.54855 -0.92632,1.15535 -1.93537,2.27766 -3.02712,3.36691 -1.09172,1.08928 -2.26091,2.14028 -3.50754,3.15296 -1.24662,1.01268 -2.56469,1.98219 -3.95421,2.90852 -1.38951,0.92636 -2.84378,1.80505 -4.36281,2.63614 -1.51902,0.83108 -3.09549,1.61053 -4.72939,2.33835 -1.6339,0.72781 -3.31737,1.40051 -5.05041,2.01809 -1.73304,0.61753 -3.5073,1.17698 -5.3228,1.67832 -1.81549,0.50137 -3.663459,0.94217 -5.543914,1.32245 -1.880463,0.38031 -3.784355,0.69824 -5.71167,0.95379 -1.927315,0.25559 -3.868767,0.44761 -5.824371,0.57602 C 83.925423,269.93579 81.96508,270 80,270 c -1.965073,0 -3.925415,-0.0642 -5.88102,-0.1926 -1.955619,-0.12841 -3.897087,-0.32043 -5.824401,-0.57602 -1.927315,-0.25555 -3.831208,-0.57348 -5.711663,-0.95379 -1.880459,-0.38028 -3.728431,-0.82108 -5.543926,-1.32245 -1.815487,-0.50134 -3.589752,-1.06079 -5.322796,-1.67832 -1.73304,-0.61758 -3.416511,-1.29028 -5.050411,-2.01809 -1.6339,-0.72782 -3.210358,-1.50727 -4.729382,-2.33835 -1.519024,-0.83109 -2.973293,-1.70978 -4.362812,-2.63614 -1.389515,-0.92633 -2.707588,-1.89584 -3.954219,-2.90852 -1.246632,-1.01268 -2.415814,-2.06368 -3.507552,-3.15296 -1.091736,-1.08925 -2.100769,-2.21156 -3.027097,-3.36691 -0.926331,-1.15536 -1.765498,-2.33821 -2.517498,-3.54855 -0.752001,-1.21032 -1.413216,-2.44229 -1.983647,-3.69594 -0.570429,-1.25365 -1.047329,-2.5229 -1.430696,-3.80779 -0.383366,-1.28485 -0.671355,-2.57914 -0.863964,-3.88287 C 20.096306,232.61696 20.000002,231.31006 20,230 c 2e-6,-1.31004 0.09631,-2.61693 0.288916,-3.92068 0.192609,-1.30375 0.480598,-2.59806 0.863964,-3.88295 0.383367,-1.28489 0.860267,-2.55414 1.430696,-3.80777 0.570431,-1.25365 1.231646,-2.48563 1.983647,-3.69597 0.752,-1.21031 1.591167,-2.39316 2.517498,-3.54851 0.92633,-1.15537 1.935363,-2.27768 3.027099,-3.36696 1.091738,-1.08925 2.260922,-2.14021 3.50755,-3.15289 1.246631,-1.01268 2.564704,-1.98221 3.954219,-2.90856 1.389519,-0.92633 2.843788,-1.80503 4.362809,-2.63614 1.519023,-0.83108 3.095481,-1.61055 4.729381,-2.33839 1.633904,-0.7278 3.317375,-1.40048 5.050415,-2.01804 1.733044,-0.61755 3.507309,-1.177 5.322796,-1.67832 1.815495,-0.50133 3.663467,-0.94213 5.543926,-1.32241 1.880455,-0.38029 3.78434,-0.69822 5.711655,-0.95382 1.927322,-0.25557 3.86879,-0.44756 5.824409,-0.57596 C 76.074585,190.06421 78.034927,190 80,190 c 1.96508,0 3.925423,0.0642 5.881035,0.19261 1.955604,0.12842 3.897064,0.32041 5.824379,0.57598 1.927315,0.25558 3.831207,0.57351 5.711662,0.95379 1.880455,0.3803 3.728424,0.82109 5.543914,1.32242 1.8155,0.50133 3.58976,1.06078 5.3228,1.67834 1.73304,0.61754 3.41651,1.29023 5.0504,2.01804 1.6339,0.72784 3.21037,1.50731 4.7294,2.33839 1.51903,0.83111 2.9733,1.70981 4.36281,2.63614 1.38952,0.92635 2.70759,1.89588 3.95422,2.90856 1.24663,1.01268 2.41581,2.06364 3.50753,3.15289 1.09175,1.08928 2.1008,2.21159 3.02712,3.36696 0.92633,1.15536 1.76549,2.33821 2.51748,3.54852 0.752,1.21033 1.41323,2.44231 1.98366,3.69596 0.57044,1.25363 1.04733,2.52288 1.4307,3.80777 0.38337,1.28489 0.67137,2.5792 0.86398,3.88295 0.19261,1.30375 0.28892,2.61064 0.28891,3.92068 z" /></g><g
           transform="matrix(2.9985754,0,0,2.9985754,125.94017,650.69086)"
           id="g228"><text
             id="text232"
             style="font-variant:normal;font-weight:bold;font-size:12px;font-family:Helvetica;-inkscape-font-specification:Helvetica-Bold;writing-mode:lr-tb;fill:#ff0000;fill-opacity:1;fill-rule:nonzero;stroke:none"
             transform="translate(0.65625,11)"><tspan
               id="tspan230"
               y="0"
               x="0 3.3339844 10.664062 13.998047 17.994141 21.328125 28.001953 31.335938 34.669922 42 48.673828 52.669922 59.34375 66.017578 72.691406">initial dataset</tspan></text>
<text
             id="text236"
             style="font-variant:normal;font-weight:bold;font-size:12px;font-family:Helvetica;-inkscape-font-specification:Helvetica-Bold;writing-mode:lr-tb;fill:#ff0000;fill-opacity:1;fill-rule:nonzero;stroke:none"
             transform="translate(12.984375,25)"><tspan
               id="tspan234"
               y="0"
               x="0 3.9960938 7.3300781 14.003906 20.677734 24.011719 28.007812 31.341797 38.015625 44.689453 48.023438">( 10 : 90 )</tspan></text>
</g></g></g></g></svg>