<?xml version="1.0" encoding="UTF-8" standalone="no"?>
<svg
   xmlns:dc="http://purl.org/dc/elements/1.1/"
   xmlns:cc="http://creativecommons.org/ns#"
   xmlns:rdf="http://www.w3.org/1999/02/22-rdf-syntax-ns#"
   xmlns:svg="http://www.w3.org/2000/svg"
   xmlns="http://www.w3.org/2000/svg"
   xmlns:xlink="http://www.w3.org/1999/xlink"
   viewBox="0 0 192.96848 209.56427"
   height="209.56427"
   width="192.96848"
   id="svg815"
   version="1.1">
  <metadata
     id="metadata821">
    <rdf:RDF>
      <cc:Work
         rdf:about="">
        <dc:format>image/svg+xml</dc:format>
        <dc:type
           rdf:resource="http://purl.org/dc/dcmitype/StillImage" />
        <dc:title></dc:title>
      </cc:Work>
    </rdf:RDF>
  </metadata>
  <defs
     id="defs819" />
  <path
     id="path7483"
     d="m 125.60181,207.63123 c -2.2,-1.03902 -7.6,-4.63797 -12,-7.99767 -4.4,-3.3597 -9.35,-6.50913 -11,-6.99873 -1.67091,-0.4958 -2.2027,-0.93013 -1.20034,-0.98036 2.52173,-0.12638 7.21494,2.4448 14.08026,7.71386 3.23395,2.48203 8.18395,5.78334 11,7.33625 5.78244,3.18873 5.20263,3.79933 -0.87992,0.92665 z m 9.59287,-0.99197 c 1.9517,-1.60876 5.05135,-5.77126 6.8881,-9.25 7.04334,-13.33983 12.37751,-18.8861 19.51903,-20.29516 2.15146,-0.42449 1.56817,0.0845 -2.06224,1.79967 -6.02505,2.84645 -9.45498,6.78711 -15.75468,18.1006 -4.39593,7.89456 -8.50439,12.56991 -11.04578,12.56991 -0.60114,0 0.50386,-1.31626 2.45557,-2.92502 z m -78.790888,-5.57601 c -1.178665,-0.82557 -4.423953,-4.63703 -7.211752,-8.4699 -6.026411,-8.28557 -7.937329,-9.67137 -15.131389,-10.97334 l -5.458845,-0.98793 5.980141,0.50188 c 7.140508,0.59927 9.620021,2.06411 13.838347,8.17535 5.020587,7.27351 8.725858,11.228 11.072162,11.81688 1.299839,0.32624 6.78843,-1.26261 13.708044,-3.96822 6.347126,-2.48178 13.533976,-4.7641 15.970766,-5.07183 l 4.43054,-0.55951 -5.04996,1.44713 c -2.77747,0.79593 -9.649016,3.2794 -15.270094,5.51883 -11.171239,4.45061 -13.654064,4.82876 -16.87796,2.57066 z m 57.198018,-17.68913 c -13.990264,-8.02512 -16.294534,-8.16014 -32.000004,-1.87509 -6.875925,2.75162 -13.154877,4.57133 -16.747628,4.85365 -5.611574,0.44095 -5.836451,0.3589 -9.5,-3.46618 -2.063804,-2.15481 -5.102372,-6.12925 -6.752372,-8.83211 -1.65,-2.70286 -4.521543,-5.79475 -6.381206,-6.87088 -2.957579,-1.71145 -4.08518,-1.82875 -9,-0.93626 -10.539804,1.91395 -23.324644,5.68989 -23.843524,7.04207 -0.727193,1.89504 2.486207,5.13798 6.143395,6.19989 2.969705,0.86228 2.986594,0.89796 0.466194,0.98488 -3.825787,0.13194 -8.17502,-3.6116 -7.612809,-6.55262 0.373255,-1.95255 0.033975,-2.35719 -1.976463,-2.35719 -7.943908,0 -8.423533,-6.38973 -1.807253,-24.07685 7.940912,-21.22822 9.953414,-31.92668 11.460341,-60.923153 0.726225,-13.974111 1.428807,-19.270665 3.48712,-26.28832 C 32.902648,14.708876 73.311355,-9.6929104 113.35465,3.6222364 137.60653,11.68644 157.6005,35.547931 164.62397,64.808808 c 0.82582,3.440508 1.96328,13.71141 2.52768,22.824227 1.36057,21.967725 1.2119,21.530765 8.30632,24.414145 10.87693,4.42072 16.17458,9.27396 17.21556,15.77138 0.49865,3.11234 0.45999,3.08772 -0.94061,-0.59909 -0.80334,-2.11465 -2.5023,-4.95363 -3.77547,-6.30885 -2.70559,-2.87997 -16.56131,-9.97401 -17.54989,-8.98542 -1.11453,1.11453 1.67928,10.34225 7.45982,24.63908 7.53687,18.64072 8.31467,28.23898 2.50841,30.95446 -1.52569,0.71353 -8.39898,1.60021 -15.27398,1.97039 -6.88225,0.37057 -13.53506,1.24142 -14.80311,1.93771 -1.26671,0.69556 -3.85261,3.68691 -5.74643,6.64744 -4.63097,7.23936 -9.3218,10.68631 -15.24262,11.20068 -4.29435,0.37308 -5.67398,-0.1452 -15.70784,-5.90084 z m 19.51865,0.18065 c 2.50422,-1.27756 5.3126,-4.06892 7.71016,-7.66344 6.40082,-9.59637 10.18523,-11.20247 26.58693,-11.2835 11.00275,-0.0543 12.68426,-0.85416 12.68426,-6.03324 0,-3.84512 -0.63511,-5.7951 -8.79728,-27.01031 -5.31185,-13.80663 -7.032,-22.68081 -8.1955,-42.280252 -1.09316,-18.414492 -3.36495,-29.296356 -8.38405,-40.15953 C 144.77501,27.589085 125.69414,10.744447 105.98777,6.0991674 71.364487,-2.0623955 36.773454,20.498618 24.183745,59.453503 21.696907,67.148239 20.499263,76.514199 19.118636,99.064277 17.89471,119.05491 16.063726,127.97746 9.185277,147.47042 3.72232,162.95198 3.154595,166.26357 5.790074,167.2749 c 0.928548,0.35632 7.174477,-0.78281 13.879844,-2.53139 20.725746,-5.40471 25.12245,-4.32474 33.552597,8.24158 2.541389,3.7883 5.854227,7.53412 7.361862,8.32405 3.39272,1.77763 7.330292,0.90728 21.581123,-4.77024 13.639246,-5.43385 18.13739,-5.40615 28.6325,0.17633 19.73457,10.49706 16.87222,9.62004 22.32246,6.83954 z M 60.101806,86.443549 C 56.548796,85.030936 52.269625,80.7238 49.789922,76.064277 c -1.587936,-2.983836 -2.128717,-5.778286 -2.128717,-11 0,-7.775466 2.069616,-12.931674 7.099018,-17.686382 7.3383,-6.937497 19.286183,-6.366449 26.412584,1.262389 l 2.903297,3.107989 2.541292,-3.020151 c 5.79766,-6.890125 18.257714,-8.106592 25.273784,-2.467463 6.00891,4.829632 8.64692,10.566267 8.64692,18.803618 0,5.584569 -0.49907,7.891845 -2.46814,11.410608 -6.89731,12.325572 -21.159094,14.83179 -30.611524,5.379355 l -3.511369,-3.511368 -3.17263,3.258475 c -1.744947,1.792161 -4.620678,3.866978 -6.390512,4.610703 -3.714739,1.561018 -10.655155,1.673515 -14.282119,0.231499 z m 11.6849,-3.94289 c 3.678381,-1.389789 7.866602,-5.439397 9.363762,-9.053862 1.5415,-3.721512 4.361178,-3.721512 5.902678,0 2.23113,5.38642 8.87713,10.11748 14.212634,10.11748 3.9988,0 9.10922,-3.361318 11.9709,-7.873723 4.07751,-6.429559 4.07751,-14.822995 0,-21.252554 -4.45489,-7.024628 -11.8217,-9.638388 -18.065414,-6.40964 -3.22763,1.669071 -7.62519,6.560799 -8.56775,9.530521 -0.8323,2.622339 -4.183898,2.582094 -5.022564,-0.06031 -1.1197,-3.527862 -6.413269,-8.757448 -10.09431,-9.972302 -5.233082,-1.727072 -9.925186,-0.421642 -14.335126,3.988298 -12.645885,12.645885 -1.164104,36.955479 14.63519,30.986092 z m -4.320818,-6.105972 c -3.926541,-1.901264 -5.731709,-9.466279 -3.082279,-12.917067 3.363623,-4.380997 9.28216,-5.052638 13.389706,-1.519476 2.224711,1.913616 2.783036,3.238921 2.783036,6.606133 0,6.988007 -6.634344,10.956517 -13.090463,7.83041 z m 9.604722,-5.08041 c 1.374962,-2.469406 1.374926,-3.030594 -3.47e-4,-5.5 -2.926738,-5.255178 -10.968457,-3.366357 -10.968457,2.576247 0,6.255272 7.935993,8.370624 10.968804,2.923753 z m 13.485746,3.795455 c -3.46934,-3.46934 -3.41226,-9.678658 0.12147,-13.212382 2.19837,-2.198368 3.18643,-2.494145 6.73978,-2.017541 4.991134,0.669451 7.684204,3.548014 7.684204,8.213464 0,4.68296 -0.84125,6.337549 -4.07152,8.007989 -4.125754,2.133505 -7.685934,1.796475 -10.473934,-0.99153 z m 10.798574,-3.670577 c 1.6652,-2.24067 1.7676,-2.972927 0.69919,-5 -1.56691,-2.972885 -2.848244,-3.840141 -5.702314,-3.859565 -2.7828,-0.01894 -6.25,3.301078 -6.25,5.984687 0,2.993427 3.67461,6.17469 6.71168,5.810577 1.42479,-0.170817 3.468444,-1.491882 4.541444,-2.935699 z m -10.253124,10.78011 c 0,-0.189757 -1.0125,-1.202257 -2.25,-2.25 l -2.25,-1.904988 1.90499,2.25 c 1.79022,2.114445 2.59501,2.705241 2.59501,1.904988 z M 118.7948,63.833309 c -0.25354,-0.972968 -0.47766,-0.419032 -0.49804,1.230968 -0.0204,1.65 0.18706,2.446064 0.46099,1.769032 0.27392,-0.677033 0.29059,-2.027033 0.0371,-3 z m 50.55701,103.007571 c -1.7875,-0.22182 -4.7125,-0.22182 -6.5,0 -1.7875,0.22183 -0.325,0.40333 3.25,0.40333 3.575,0 5.0375,-0.1815 3.25,-0.40333 z m -3.56689,-69.464103 c -0.31922,-0.79773 -0.55618,-0.56078 -0.60416,0.60417 -0.0434,1.05416 0.19292,1.64479 0.52522,1.3125 0.33229,-0.3323 0.36781,-1.1948 0.0789,-1.91667 z m -148.020833,-2.0625 c -0.277413,-0.6875 -0.504386,-0.125 -0.504386,1.25 0,1.375 0.226973,1.9375 0.504386,1.25 0.277412,-0.6875 0.277412,-1.8125 0,-2.5 z M 143.10181,26.186722 c 0,-0.207656 -0.7875,-0.995156 -1.75,-1.75 -1.58606,-1.243871 -1.62143,-1.208501 -0.37756,0.377555 1.30637,1.665748 2.12756,2.195479 2.12756,1.372445 z M 19.914306,180.88117 c 0.721875,-0.28887 1.584375,-0.25335 1.916667,0.0789 0.332291,0.33229 -0.258334,0.56864 -1.3125,0.52522 -1.164943,-0.048 -1.4019,-0.28494 -0.604167,-0.60416 z M 172.85181,177.902 c 0.6875,-0.27741 1.8125,-0.27741 2.5,0 0.6875,0.27741 0.125,0.50439 -1.25,0.50439 -1.375,0 -1.9375,-0.22698 -1.25,-0.50439 z m 6.25,-0.0204 c 4.75858,-0.78103 8.0869,-2.60466 9.50036,-5.20536 0.78076,-1.43657 1.43758,-2.01987 1.4596,-1.29621 0.12049,3.9595 -5.10259,7.34951 -10.85918,7.04808 l -2.60078,-0.13619 2.5,-0.41033 z m -11.25,-0.97959 c 0.6875,-0.27741 1.8125,-0.27741 2.5,0 0.6875,0.27741 0.125,0.50439 -1.25,0.50439 -1.375,0 -1.9375,-0.22698 -1.25,-0.50439 z m 22.44495,-9.83773 c 0.0204,-1.65 0.2445,-2.20394 0.49804,-1.23097 0.25354,0.97297 0.23687,2.32297 -0.0371,3 -0.27393,0.67703 -0.48137,-0.11903 -0.46099,-1.76903 z m 0.0572,-7 c 0.0111,-2.2 0.21589,-2.98225 0.45508,-1.73834 0.23919,1.24391 0.23011,3.04391 -0.0202,4 -0.25029,0.95609 -0.446,-0.0617 -0.4349,-2.26166 z m -1.05723,-8 c 0.0204,-1.65 0.2445,-2.20394 0.49804,-1.23097 0.25354,0.97297 0.23687,2.32297 -0.0371,3 -0.27393,0.67703 -0.48137,-0.11903 -0.46099,-1.76903 z m 0.23599,-5.50205 c 0.32643,-1.37387 1.21783,-5.42295 1.98088,-8.99795 0.76305,-3.575 1.41674,-5.6 1.45264,-4.5 0.0883,2.70525 -2.46681,14.43568 -3.33305,15.30192 -0.38169,0.38169 -0.4269,-0.4301 -0.10047,-1.80397 z"
     style="fill:#010000;fill-opacity:1;stroke:none;stroke-opacity:1" />
  <path
     id="path7511"
     d="m 71.123512,74.358553 c -2.033449,-0.298676 -3.785861,-1.665707 -4.543323,-3.544181 -0.643974,-1.597028 -0.594274,-3.546605 0.127008,-4.982191 0.376178,-0.748715 1.128574,-1.596929 1.820661,-2.052521 0.986013,-0.649081 1.92678,-0.94455 3.146116,-0.988108 1.358394,-0.04853 2.406295,0.240114 3.489326,0.961116 0.819381,0.545485 1.461087,1.291373 2.061563,2.396263 0.86798,1.597104 1.017876,2.333663 0.683232,3.357264 -0.130788,0.400051 -0.727614,1.600095 -1.049752,2.110745 -1.140761,1.808329 -2.906722,2.804366 -4.936734,2.784418 -0.29865,-0.0029 -0.657794,-0.0222 -0.798097,-0.04281 z"
     style="fill:#000000;fill-opacity:1;stroke:none;stroke-width:0.04525001;stroke-opacity:0.16543729" />
  <path
     id="path7513"
     d="m 95.406366,74.287266 c -1.24108,-0.263155 -2.44578,-0.945857 -3.46163,-1.961709 -0.82969,-0.829691 -1.36866,-1.690306 -1.6578,-2.647125 -0.10849,-0.359002 -0.12345,-0.484983 -0.12629,-1.063375 -0.004,-0.799564 0.0723,-1.112397 0.46876,-1.923126 0.36918,-0.754982 0.73946,-1.257483 1.45071,-1.968756 0.69393,-0.693947 1.23021,-1.094214 1.99137,-1.486325 0.98172,-0.505733 1.67408,-0.668682 2.64968,-0.623613 1.71822,0.07937 2.69754,0.453148 3.629754,1.385362 0.59911,0.599112 1.2825,1.630034 1.84536,2.783832 0.85451,1.751649 0.69791,2.588369 -0.86879,4.641853 -1.00267,1.314216 -2.693424,2.484435 -4.114734,2.847947 -0.42872,0.109648 -1.325,0.117108 -1.80639,0.01503 z"
     style="fill:#000000;fill-opacity:1;stroke:none;stroke-width:0.04525001;stroke-opacity:0.16543729" />
  <use
     transform="translate(-23.911466,0.38324633)"
     height="100%"
     width="100%"
     y="0"
     x="0"
     xlink:href="#path7513"
     id="use7699" />
  <use
     transform="translate(-23.873127,0.38961543)"
     height="100%"
     width="100%"
     y="0"
     x="0"
     xlink:href="#path7513"
     id="use7701" />
  <use
     transform="translate(-23.873262,0.41459433)"
     height="100%"
     width="100%"
     y="0"
     x="0"
     xlink:href="#path7513"
     id="use7703" />
  <use
     transform="translate(-23.833594,0.43428993)"
     height="100%"
     width="100%"
     y="0"
     x="0"
     xlink:href="#path7513"
     id="use7705" />
  <use
     transform="translate(-23.810537,0.43672533)"
     height="100%"
     width="100%"
     y="0"
     x="0"
     xlink:href="#path7513"
     id="use7707" />
  <use
     transform="translate(-23.759898,0.45104813)"
     height="100%"
     width="100%"
     y="0"
     x="0"
     xlink:href="#path7513"
     id="use7709" />
  <use
     transform="translate(-23.742174,0.45210113)"
     height="100%"
     width="100%"
     y="0"
     x="0"
     xlink:href="#path7513"
     id="use7711" />
  <use
     transform="translate(-23.711945,0.44838053)"
     height="100%"
     width="100%"
     y="0"
     x="0"
     xlink:href="#path7513"
     id="use7713" />
  <use
     transform="translate(-23.71088,0.42951593)"
     height="100%"
     width="100%"
     y="0"
     x="0"
     xlink:href="#path7513"
     id="use7715" />
  <use
     transform="translate(-23.69657,0.43098573)"
     height="100%"
     width="100%"
     y="0"
     x="0"
     xlink:href="#path7513"
     id="use7717" />
  <use
     transform="translate(-23.691616,0.41427843)"
     height="100%"
     width="100%"
     y="0"
     x="0"
     xlink:href="#path7513"
     id="use7719" />
  <use
     transform="translate(-23.739891,0.41606173)"
     height="100%"
     width="100%"
     y="0"
     x="0"
     xlink:href="#path7513"
     id="use7721" />
  <use
     transform="translate(-23.7854,0.38389233)"
     height="100%"
     width="100%"
     y="0"
     x="0"
     xlink:href="#path7513"
     id="use7723" />
  <use
     transform="translate(-23.816469,0.39228103)"
     height="100%"
     width="100%"
     y="0"
     x="0"
     xlink:href="#path7513"
     id="use7725" />
  <use
     transform="translate(-23.830594,0.36363643)"
     height="100%"
     width="100%"
     y="0"
     x="0"
     xlink:href="#path7513"
     id="use7727" />
  <use
     transform="translate(-23.853801,0.37347623)"
     height="100%"
     width="100%"
     y="0"
     x="0"
     xlink:href="#path7513"
     id="use7729" />
  <use
     transform="translate(-23.866459,0.35894623)"
     height="100%"
     width="100%"
     y="0"
     x="0"
     xlink:href="#path7513"
     id="use7731" />
  <use
     transform="translate(-23.918509,0.32680473)"
     height="100%"
     width="100%"
     y="0"
     x="0"
     xlink:href="#path7513"
     id="use7733" />
  <use
     transform="translate(-23.911314,0.29218873)"
     height="100%"
     width="100%"
     y="0"
     x="0"
     xlink:href="#path7513"
     id="use7735" />
  <use
     transform="translate(-23.961454,0.29388343)"
     height="100%"
     width="100%"
     y="0"
     x="0"
     xlink:href="#path7513"
     id="use7737" />
  <use
     transform="translate(-23.978905,0.30044913)"
     height="100%"
     width="100%"
     y="0"
     x="0"
     xlink:href="#path7513"
     id="use7739" />
  <use
     transform="translate(-24.015241,0.27580453)"
     height="100%"
     width="100%"
     y="0"
     x="0"
     xlink:href="#path7513"
     id="use7741" />
  <use
     transform="translate(-24.051374,0.26226983)"
     height="100%"
     width="100%"
     y="0"
     x="0"
     xlink:href="#path7513"
     id="use7743" />
  <use
     transform="translate(-24.070217,0.25526753)"
     height="100%"
     width="100%"
     y="0"
     x="0"
     xlink:href="#path7513"
     id="use7745" />
  <use
     transform="translate(-24.097765,0.26126833)"
     height="100%"
     width="100%"
     y="0"
     x="0"
     xlink:href="#path7513"
     id="use7747" />
  <use
     transform="translate(-24.094092,0.22178793)"
     height="100%"
     width="100%"
     y="0"
     x="0"
     xlink:href="#path7513"
     id="use7749" />
  <use
     transform="translate(-24.132881,0.22753233)"
     height="100%"
     width="100%"
     y="0"
     x="0"
     xlink:href="#path7513"
     id="use7751" />
  <use
     transform="translate(-24.157242,0.21097213)"
     height="100%"
     width="100%"
     y="0"
     x="0"
     xlink:href="#path7513"
     id="use7753" />
  <use
     transform="translate(-24.230033,0.18909693)"
     height="100%"
     width="100%"
     y="0"
     x="0"
     xlink:href="#path7513"
     id="use7755" />
  <use
     transform="translate(-24.256381,0.18052913)"
     height="100%"
     width="100%"
     y="0"
     x="0"
     xlink:href="#path7513"
     id="use7757" />
  <use
     transform="translate(-24.277921,0.18615363)"
     height="100%"
     width="100%"
     y="0"
     x="0"
     xlink:href="#path7513"
     id="use7759" />
  <use
     transform="translate(-24.270405,0.13918333)"
     height="100%"
     width="100%"
     y="0"
     x="0"
     xlink:href="#path7513"
     id="use7761" />
  <use
     transform="translate(-24.313747,0.13868613)"
     height="100%"
     width="100%"
     y="0"
     x="0"
     xlink:href="#path7513"
     id="use7763" />
  <use
     transform="translate(-24.369288,0.14476093)"
     height="100%"
     width="100%"
     y="0"
     x="0"
     xlink:href="#path7513"
     id="use7765" />
  <use
     transform="translate(-24.398633,0.12392373)"
     height="100%"
     width="100%"
     y="0"
     x="0"
     xlink:href="#path7513"
     id="use7767" />
  <use
     transform="translate(-24.38246,0.03017183)"
     height="100%"
     width="100%"
     y="0"
     x="0"
     xlink:href="#path7513"
     id="use7769" />
  <use
     transform="translate(-24.421061,0.00333973)"
     height="100%"
     width="100%"
     y="0"
     x="0"
     xlink:href="#path7513"
     id="use7771" />
  <use
     transform="translate(-24.41338,-0.02120477)"
     height="100%"
     width="100%"
     y="0"
     x="0"
     xlink:href="#path7513"
     id="use7773" />
  <use
     transform="translate(-24.412749,-0.09012077)"
     height="100%"
     width="100%"
     y="0"
     x="0"
     xlink:href="#path7513"
     id="use7775" />
  <use
     transform="translate(-24.429189,-0.08326477)"
     height="100%"
     width="100%"
     y="0"
     x="0"
     xlink:href="#path7513"
     id="use7777" />
  <use
     transform="translate(-24.437125,-0.11173607)"
     height="100%"
     width="100%"
     y="0"
     x="0"
     xlink:href="#path7513"
     id="use7779" />
  <use
     transform="translate(-24.466386,-0.10530557)"
     height="100%"
     width="100%"
     y="0"
     x="0"
     xlink:href="#path7513"
     id="use7781" />
  <use
     transform="translate(-24.462747,-0.12645717)"
     height="100%"
     width="100%"
     y="0"
     x="0"
     xlink:href="#path7513"
     id="use7783" />
  <use
     transform="translate(-24.524283,-0.13198277)"
     height="100%"
     width="100%"
     y="0"
     x="0"
     xlink:href="#path7513"
     id="use7785" />
  <use
     transform="translate(-24.546138,-0.12520017)"
     height="100%"
     width="100%"
     y="0"
     x="0"
     xlink:href="#path7513"
     id="use7787" />
  <use
     transform="translate(-24.547996,-0.14541927)"
     height="100%"
     width="100%"
     y="0"
     x="0"
     xlink:href="#path7513"
     id="use7789" />
  <use
     transform="translate(-24.544564,-0.12950147)"
     height="100%"
     width="100%"
     y="0"
     x="0"
     xlink:href="#path7513"
     id="use7791" />
  <use
     transform="translate(-24.546986,-0.10551147)"
     height="100%"
     width="100%"
     y="0"
     x="0"
     xlink:href="#path7513"
     id="use7793" />
  <use
     transform="translate(-24.548494,-0.07934987)"
     height="100%"
     width="100%"
     y="0"
     x="0"
     xlink:href="#path7513"
     id="use7795" />
  <use
     transform="translate(-24.548236,-0.04587417)"
     height="100%"
     width="100%"
     y="0"
     x="0"
     xlink:href="#path7513"
     id="use7797" />
  <use
     transform="translate(-24.543711,-0.01239027)"
     height="100%"
     width="100%"
     y="0"
     x="0"
     xlink:href="#path7513"
     id="use7799" />
  <use
     transform="translate(-24.555962,0.01142083)"
     height="100%"
     width="100%"
     y="0"
     x="0"
     xlink:href="#path7513"
     id="use7801" />
  <use
     transform="translate(-24.548484,0.03566613)"
     height="100%"
     width="100%"
     y="0"
     x="0"
     xlink:href="#path7513"
     id="use7803" />
  <use
     transform="translate(-24.547978,0.08275973)"
     height="100%"
     width="100%"
     y="0"
     x="0"
     xlink:href="#path7513"
     id="use7805" />
  <use
     transform="translate(-24.5464,0.08984723)"
     height="100%"
     width="100%"
     y="0"
     x="0"
     xlink:href="#path7513"
     id="use7807" />
  <use
     transform="translate(0.26375399,-0.05902117)"
     height="100%"
     width="100%"
     y="0"
     x="0"
     xlink:href="#path7513"
     id="use7809" />
  <use
     transform="translate(0.27427399,-0.09028597)"
     height="100%"
     width="100%"
     y="0"
     x="0"
     xlink:href="#path7513"
     id="use7811" />
  <use
     transform="translate(0.29708999,-0.08996807)"
     height="100%"
     width="100%"
     y="0"
     x="0"
     xlink:href="#path7513"
     id="use7813" />
  <use
     transform="translate(0.28864599,-0.12937117)"
     height="100%"
     width="100%"
     y="0"
     x="0"
     xlink:href="#path7513"
     id="use7815" />
  <use
     transform="translate(0.27201899,-0.13159277)"
     height="100%"
     width="100%"
     y="0"
     x="0"
     xlink:href="#path7513"
     id="use7817" />
  <use
     transform="translate(0.25272799,-0.13541407)"
     height="100%"
     width="100%"
     y="0"
     x="0"
     xlink:href="#path7513"
     id="use7819" />
  <use
     transform="translate(0.20011499,-0.12962207)"
     height="100%"
     width="100%"
     y="0"
     x="0"
     xlink:href="#path7513"
     id="use7821" />
  <use
     transform="translate(0.16449299,-0.12454807)"
     height="100%"
     width="100%"
     y="0"
     x="0"
     xlink:href="#path7513"
     id="use7823" />
  <use
     transform="translate(0.11634599,-0.12525367)"
     height="100%"
     width="100%"
     y="0"
     x="0"
     xlink:href="#path7513"
     id="use7825" />
  <use
     transform="translate(0.08856599,-0.12524947)"
     height="100%"
     width="100%"
     y="0"
     x="0"
     xlink:href="#path7513"
     id="use7827" />
  <use
     transform="translate(0.06824299,-0.13350227)"
     height="100%"
     width="100%"
     y="0"
     x="0"
     xlink:href="#path7513"
     id="use7829" />
  <use
     transform="translate(0.04423799,-0.13830287)"
     height="100%"
     width="100%"
     y="0"
     x="0"
     xlink:href="#path7513"
     id="use7831" />
  <use
     transform="translate(-6.3200757e-4,-0.13371287)"
     height="100%"
     width="100%"
     y="0"
     x="0"
     xlink:href="#path7513"
     id="use7833" />
  <use
     transform="translate(-0.02177501,-0.12645957)"
     height="100%"
     width="100%"
     y="0"
     x="0"
     xlink:href="#path7513"
     id="use7835" />
  <use
     transform="translate(-0.08965301,-0.05492927)"
     height="100%"
     width="100%"
     y="0"
     x="0"
     xlink:href="#path7513"
     id="use7837" />
  <use
     transform="translate(-0.11269301,-0.04412517)"
     height="100%"
     width="100%"
     y="0"
     x="0"
     xlink:href="#path7513"
     id="use7839" />
  <use
     transform="translate(-0.13475101,-0.03423177)"
     height="100%"
     width="100%"
     y="0"
     x="0"
     xlink:href="#path7513"
     id="use7841" />
  <use
     transform="translate(-0.12886801,0.02489603)"
     height="100%"
     width="100%"
     y="0"
     x="0"
     xlink:href="#path7513"
     id="use7843" />
  <use
     transform="translate(-0.14089001,0.04891413)"
     height="100%"
     width="100%"
     y="0"
     x="0"
     xlink:href="#path7513"
     id="use7845" />
  <use
     transform="translate(-0.11867001,0.04738803)"
     height="100%"
     width="100%"
     y="0"
     x="0"
     xlink:href="#path7513"
     id="use7847" />
  <use
     transform="translate(-0.11425401,0.07327193)"
     height="100%"
     width="100%"
     y="0"
     x="0"
     xlink:href="#path7513"
     id="use7849" />
  <use
     transform="translate(-0.08716201,0.07216473)"
     height="100%"
     width="100%"
     y="0"
     x="0"
     xlink:href="#path7513"
     id="use7851" />
  <use
     transform="translate(-0.08426901,0.09409693)"
     height="100%"
     width="100%"
     y="0"
     x="0"
     xlink:href="#path7513"
     id="use7853" />
  <use
     transform="translate(-0.01909501,0.09829003)"
     height="100%"
     width="100%"
     y="0"
     x="0"
     xlink:href="#path7513"
     id="use7855" />
  <use
     transform="translate(-0.02265601,0.12371883)"
     height="100%"
     width="100%"
     y="0"
     x="0"
     xlink:href="#path7513"
     id="use7857" />
  <use
     transform="translate(-0.00943501,0.12066143)"
     height="100%"
     width="100%"
     y="0"
     x="0"
     xlink:href="#path7513"
     id="use7859" />
  <use
     transform="translate(0.02084499,0.12671383)"
     height="100%"
     width="100%"
     y="0"
     x="0"
     xlink:href="#path7513"
     id="use7861" />
  <path
     id="path7885"
     d="m 128.11392,185.17739 c -1.48302,-0.26371 -3.70314,-1.32185 -11.74165,-5.59626 -4.48367,-2.38416 -9.12632,-4.73635 -10.317,-5.2271 -3.99145,-1.64513 -7.032954,-2.18103 -10.382724,-1.82941 -3.78907,0.39773 -6.80593,1.30926 -15.344757,4.63636 -11.500607,4.48114 -15.548309,5.46884 -18.54169,4.52447 -1.937341,-0.6112 -4.35662,-3.01867 -7.631573,-7.59432 -4.41208,-6.1644 -6.072004,-8.12564 -8.251722,-9.74962 -4.06005,-3.02492 -9.127281,-3.45696 -18.303925,-1.56063 -1.443475,0.29829 -4.742201,1.07307 -7.330501,1.72174 -5.592711,1.40161 -9.920349,2.31498 -12.382532,2.61339 -1.674079,0.2029 -1.834098,0.19387 -2.397726,-0.13531 -0.93643,-0.5469 -1.087665,-0.99608 -0.995733,-2.9574 0.126484,-2.69848 0.813654,-5.02884 5.630066,-19.09291 6.384854,-18.64397 7.767962,-25.74608 9.147634,-46.972103 1.705576,-26.239998 2.86935,-33.556236 7.0092,-44.064348 9.857329,-25.0207 29.647803,-43.068388 52.58639,-47.9555356 4.212482,-0.897484 6.926789,-1.213531 11.392619,-1.326529 10.667264,-0.269911 19.808884,1.83576 29.222864,6.7311646 18.83624,9.795115 34.38157,29.682118 39.87602,51.013069 1.83527,7.124992 2.82198,14.477744 3.72107,27.72868 1.05624,15.567042 2.03036,22.205182 4.52865,30.860512 1.18412,4.10238 2.01652,6.46269 5.42577,15.385 6.19738,16.21912 6.96824,18.68052 6.96824,22.25015 0,3.82368 -1.16614,5.05074 -5.3395,5.61848 -0.7964,0.10835 -4.58383,0.27378 -8.4165,0.36763 -9.87276,0.24176 -12.71398,0.63305 -16.38489,2.2565 -2.62921,1.16277 -5.37269,3.71825 -7.95962,7.41419 -4.20565,6.0086 -5.86842,7.63694 -10.23023,10.01838 -1.59062,0.86843 -2.51245,1.10736 -3.55625,0.92176 z M 105.09653,87.115701 c 5.95349,-1.614697 10.79488,-5.864618 13.76585,-12.084087 1.37448,-2.877343 1.65399,-4.470498 1.66186,-9.47233 0.007,-4.271751 -0.1612,-5.70688 -1.00595,-8.597502 -1.19705,-4.096115 -4.46465,-8.585774 -8.1453,-11.191563 -6.05593,-4.287416 -15.393144,-4.182109 -21.872104,0.246682 -1.26752,0.866432 -2.28639,1.855626 -3.95624,3.841001 -0.73245,0.870858 -1.38405,1.58372 -1.447998,1.584134 -0.06394,3.62e-4 -1.134385,-1.045474 -2.37876,-2.324196 -3.197639,-3.285903 -5.644977,-4.84157 -9.268626,-5.891663 -4.58695,-1.329244 -9.171415,-0.936842 -13.446878,1.150974 -5.410494,2.642081 -9.544854,8.141888 -10.853372,14.437896 -0.716937,3.449584 -0.723906,9.625703 -0.01461,12.945692 1.196372,5.599808 6.91989,12.70943 11.841528,14.709272 3.255798,1.322947 10.225791,1.336468 13.833793,0.02683 2.393141,-0.868663 5.019902,-2.784193 7.940915,-5.790803 l 2.114255,-2.176212 2.307353,2.217042 c 1.26904,1.219374 2.76947,2.572644 3.3343,3.007269 2.23788,1.722012 4.87067,2.95194 7.59634,3.548699 2.07244,0.453738 5.966844,0.362567 7.993644,-0.187138 z"
     style="fill:#000000;fill-opacity:0.24762908;stroke:none;stroke-width:0.18100002;stroke-opacity:0.16543729" />
</svg>
