<?xml version="1.0" encoding="UTF-8" standalone="no"?>
<svg
   xmlns:dc="http://purl.org/dc/elements/1.1/"
   xmlns:cc="http://creativecommons.org/ns#"
   xmlns:rdf="http://www.w3.org/1999/02/22-rdf-syntax-ns#"
   xmlns:svg="http://www.w3.org/2000/svg"
   xmlns="http://www.w3.org/2000/svg"
   viewBox="0 0 608.87329 587.18384"
   height="587.18384"
   width="608.87329"
   xml:space="preserve"
   id="svg815"
   version="1.1"><metadata
     id="metadata821"><rdf:RDF><cc:Work
         rdf:about=""><dc:format>image/svg+xml</dc:format><dc:type
           rdf:resource="http://purl.org/dc/dcmitype/StillImage" /><dc:title></dc:title></cc:Work></rdf:RDF></metadata><defs
     id="defs819"><clipPath
       id="clipPath835"
       clipPathUnits="userSpaceOnUse"><path
         id="path833"
         d="m 21.6,21.6 h 576 v 748.8 h -576 z" /></clipPath><clipPath
       id="clipPath853"
       clipPathUnits="userSpaceOnUse"><path
         id="path851"
         d="m 21.6,21.6 h 576 v 748.8 h -576 z" /></clipPath><clipPath
       id="clipPath871"
       clipPathUnits="userSpaceOnUse"><path
         id="path869"
         d="m 21.6,21.6 h 576 v 748.8 h -576 z" /></clipPath><clipPath
       id="clipPath889"
       clipPathUnits="userSpaceOnUse"><path
         id="path887"
         d="m 21.6,21.6 h 576 v 748.8 h -576 z" /></clipPath><clipPath
       id="clipPath911"
       clipPathUnits="userSpaceOnUse"><path
         id="path909"
         d="m 21.6,21.6 h 576 v 748.8 h -576 z" /></clipPath></defs><g
     transform="matrix(1.3333333,0,0,-1.3333333,-187.92666,874.25527)"
     id="g823"><g
       id="g829"><g
         clip-path="url(#clipPath835)"
         id="g831"><path
           id="path837"
           style="fill:#006400;fill-opacity:1;fill-rule:nonzero;stroke:#ffffff;stroke-width:0.75;stroke-linecap:round;stroke-linejoin:round;stroke-miterlimit:10;stroke-dasharray:none;stroke-opacity:1"
           d="m 477.89,396 -0.11,6.16 -0.34,6.16 -0.56,6.14 -0.79,6.11 -1.01,6.08 -1.24,6.04 -1.45,5.99 -1.67,5.93 -1.89,5.87 -2.1,5.79 -2.31,5.72 L 309.6,396 Z" /><path
           id="path839"
           style="fill:none;stroke:#ffffff;stroke-width:0.75;stroke-linecap:round;stroke-linejoin:round;stroke-miterlimit:10;stroke-dasharray:none;stroke-opacity:1"
           d="m 474.49,429.67 8.24,1.69" /></g></g><g
       id="g841"><text
         id="text845"
         style="font-variant:normal;font-weight:normal;font-size:12px;font-family:Helvetica;-inkscape-font-specification:Helvetica;writing-mode:lr-tb;fill:#ffffff;fill-opacity:1;fill-rule:nonzero;stroke:none"
         transform="matrix(1,0,0,-1,490.98,428.94)"><tspan
           id="tspan843"
           y="0"
           x="0 6.6719999">6%</tspan></text>
</g><g
       id="g847"><g
         clip-path="url(#clipPath853)"
         id="g849"><path
           id="path855"
           style="fill:#01ff00;fill-opacity:1;fill-rule:nonzero;stroke:#ffffff;stroke-width:0.75;stroke-linecap:round;stroke-linejoin:round;stroke-miterlimit:10;stroke-dasharray:none;stroke-opacity:1"
           d="m 464.42,461.99 -2.17,4.87 -2.33,4.81 -2.47,4.73 -2.63,4.65 -2.77,4.56 -2.91,4.47 -3.06,4.38 -3.19,4.28 -3.32,4.18 -3.46,4.06 -3.58,3.96 -3.71,3.84 -3.83,3.72 -3.94,3.6 -4.06,3.47 -4.16,3.34 -4.27,3.21 -4.37,3.07 -4.46,2.93 -4.55,2.79 -4.64,2.64 -4.72,2.49 -4.8,2.34 -4.87,2.19 -4.93,2.04 -5,1.87 -5.05,1.72 -5.11,1.55 -5.15,1.39 -5.2,1.23 -5.23,1.06 -5.26,0.9 -5.29,0.73 -5.31,0.56 -5.32,0.39 -5.34,0.23 -5.34,0.05 -5.33,-0.12 -5.33,-0.28 -5.32,-0.45 -5.3,-0.63 -5.28,-0.79 -5.26,-0.95 -5.21,-1.13 -5.18,-1.29 -5.14,-1.45 -5.09,-1.61 -5.03,-1.78 -4.98,-1.93 -4.91,-2.09 -4.85,-2.24 -4.77,-2.4 -4.69,-2.55 -4.6,-2.69 -4.52,-2.84 -4.43,-2.99 -4.33,-3.12 -4.23,-3.25 -4.13,-3.39 -4.01,-3.52 -3.9,-3.64 -3.79,-3.77 -3.66,-3.88 -3.54,-4 -3.41,-4.11 -3.27,-4.21 -3.15,-4.32 -3,-4.41 -2.86,-4.51 -2.72,-4.59 -2.57,-4.68 -2.42,-4.76 -2.27,-4.83 -2.11,-4.9 -1.96,-4.97 -1.8,-5.03 -1.64,-5.08 -1.47,-5.13 -1.32,-5.17 -1.14,-5.21 -0.99,-5.25 -0.81,-5.28 -0.65,-5.3 -0.48,-5.31 -0.31,-5.33 -0.14,-5.34 0.03,-5.34 0.19,-5.33 0.37,-5.33 0.53,-5.31 0.71,-5.29 0.87,-5.27 1.03,-5.23 1.21,-5.2 1.36,-5.16 1.53,-5.12 1.7,-5.06 1.85,-5.01 2.01,-4.94 2.16,-4.88 2.32,-4.81 2.47,-4.73 2.62,-4.66 2.76,-4.56 2.91,-4.48 3.05,-4.38 3.19,-4.28 3.32,-4.18 3.45,-4.07 3.58,-3.97 3.7,-3.84 3.82,-3.73 3.94,-3.6 4.05,-3.48 4.16,-3.34 L 309.6,396 Z" /><path
           id="path857"
           style="fill:none;stroke:#ffffff;stroke-width:0.75;stroke-linecap:round;stroke-linejoin:round;stroke-miterlimit:10;stroke-dasharray:none;stroke-opacity:1"
           d="m 206.94,529.35 -5.13,6.67" /></g></g><g
       id="g859"><text
         id="text863"
         style="font-variant:normal;font-weight:normal;font-size:12px;font-family:Helvetica;-inkscape-font-specification:Helvetica;writing-mode:lr-tb;fill:#ffffff;fill-opacity:1;fill-rule:nonzero;stroke:none"
         transform="matrix(1,0,0,-1,172.66,538.58)"><tspan
           id="tspan861"
           y="0"
           x="0 6.6719999 13.344">58%</tspan></text>
</g><g
       id="g865"><g
         clip-path="url(#clipPath871)"
         id="g867"><path
           id="path873"
           style="fill:#ff0000;fill-opacity:1;fill-rule:nonzero;stroke:#ffffff;stroke-width:0.75;stroke-linecap:round;stroke-linejoin:round;stroke-miterlimit:10;stroke-dasharray:none;stroke-opacity:1"
           d="m 206.21,263.21 4.36,-3.28 4.46,-3.14 4.56,-2.99 4.65,-2.84 4.74,-2.69 4.83,-2.53 4.91,-2.38 4.98,-2.21 5.05,-2.06 5.11,-1.88 5.17,-1.73 5.23,-1.55 5.27,-1.38 5.32,-1.22 5.35,-1.03 5.38,-0.87 5.41,-0.69 5.43,-0.52 5.44,-0.33 5.45,-0.17 5.45,0.02 5.45,0.19 5.44,0.37 5.42,0.54 5.41,0.72 5.38,0.89 5.34,1.07 5.31,1.24 5.27,1.41 5.21,1.58 5.17,1.75 5.1,1.91 5.04,2.08 4.97,2.24 4.9,2.4 4.81,2.56 4.73,2.72 4.64,2.86 4.54,3.01 4.44,3.16 4.34,3.31 4.23,3.44 4.12,3.57 3.99,3.71 3.88,3.83 3.75,3.96 3.62,4.08 3.48,4.19 3.35,4.3 3.21,4.41 3.06,4.51 2.91,4.61 2.77,4.7 2.6,4.79 2.46,4.87 2.29,4.94 2.13,5.02 1.97,5.08 1.81,5.15 1.63,5.2 L 309.6,396 Z" /><path
           id="path875"
           style="fill:#ffffff;fill-opacity:1;stroke:#ffffff;stroke-width:0.75;stroke-linecap:round;stroke-linejoin:round;stroke-miterlimit:10;stroke-dasharray:none;stroke-opacity:1"
           d="m 360.99,235.75 2.57,-8.01" /></g></g><g
       id="g877"><text
         id="text881"
         style="font-variant:normal;font-weight:normal;font-size:12px;font-family:Helvetica;-inkscape-font-specification:Helvetica;writing-mode:lr-tb;fill:#ffffff;fill-opacity:1;fill-rule:nonzero;stroke:none"
         transform="matrix(1,0,0,-1,366.13,215.62)"><tspan
           id="tspan879"
           y="0"
           x="0 6.6719999 13.344">31%</tspan></text>
</g><g
       id="g883"><g
         clip-path="url(#clipPath889)"
         id="g885"><path
           id="path891"
           style="fill:#8b0000;fill-opacity:1;fill-rule:nonzero;stroke:#ffffff;stroke-width:0.75;stroke-linecap:round;stroke-linejoin:round;stroke-miterlimit:10;stroke-dasharray:none;stroke-opacity:1"
           d="m 470.93,348.11 1.63,5.85 1.41,5.9 1.19,5.95 0.98,5.99 0.77,6.02 0.54,6.05 0.33,6.06 0.11,6.07 H 309.6 Z" /><path
           id="path893"
           style="fill:none;stroke:#ffffff;stroke-width:0.75;stroke-linecap:round;stroke-linejoin:round;stroke-miterlimit:10;stroke-dasharray:none;stroke-opacity:1"
           d="m 476.14,371.8 8.33,-1.21" /></g></g><g
       id="g895"><text
         id="text899"
         style="font-variant:normal;font-weight:normal;font-size:12px;font-family:Helvetica;-inkscape-font-specification:Helvetica;writing-mode:lr-tb;fill:#ffffff;fill-opacity:1;fill-rule:nonzero;stroke:none"
         transform="matrix(1,0,0,-1,492.8,365.28)"><tspan
           id="tspan897"
           y="0"
           x="0 6.6719999">5%</tspan></text>
<text
         y="-645.66998"
         x="254.00999"
         id="text903"
         style="font-variant:normal;font-weight:bold;font-size:14px;font-family:Helvetica;-inkscape-font-specification:Helvetica-Bold;writing-mode:lr-tb;fill:#ffffff;fill-opacity:1;fill-rule:nonzero;stroke:none;stroke-opacity:1"
         transform="scale(1,-1)"><tspan
           id="tspan901"
           y="-645.66998"
           x="254.00999 262.564 266.45599 275.01001 282.79401 286.686 290.578 298.29199 306.07599 313.85999 318.522 322.414 332.522 340.306 348.09 356.64401 360.53601">Final Test Result</tspan></text>
</g><g
       id="g905"><g
         clip-path="url(#clipPath911)"
         id="g907"><path
           id="path913"
           style="fill:none;fill-opacity:1;fill-rule:nonzero;stroke:#ffffff;stroke-width:0.75;stroke-linecap:round;stroke-linejoin:round;stroke-miterlimit:10;stroke-dasharray:none;stroke-opacity:1"
           d="M 448.93,623.19 H 597.6 V 533.84 H 448.93 Z" /><path
           id="path915"
           style="fill:#006400;fill-opacity:1;fill-rule:nonzero;stroke:#ffffff;stroke-width:0.75;stroke-linecap:round;stroke-linejoin:round;stroke-miterlimit:10;stroke-dasharray:none;stroke-opacity:1"
           d="m 462.33,609.79 h 10.72 v -8.93 h -10.72 z" /><path
           id="path917"
           style="fill:#01ff00;fill-opacity:1;fill-rule:nonzero;stroke:#ffffff;stroke-width:0.75;stroke-linecap:round;stroke-linejoin:round;stroke-miterlimit:10;stroke-dasharray:none;stroke-opacity:1"
           d="m 462.33,591.92 h 10.72 v -8.93 h -10.72 z" /><path
           id="path919"
           style="fill:#ff0000;fill-opacity:1;fill-rule:nonzero;stroke:#ffffff;stroke-width:0.75;stroke-linecap:round;stroke-linejoin:round;stroke-miterlimit:10;stroke-dasharray:none;stroke-opacity:1"
           d="m 462.33,574.05 h 10.72 v -8.93 h -10.72 z" /><path
           id="path921"
           style="fill:#8b0000;fill-opacity:1;fill-rule:nonzero;stroke:#ffffff;stroke-width:0.75;stroke-linecap:round;stroke-linejoin:round;stroke-miterlimit:10;stroke-dasharray:none;stroke-opacity:1"
           d="m 462.33,556.18 h 10.72 v -8.93 h -10.72 z" /><text
           id="text925"
           style="font-variant:normal;font-weight:normal;font-size:11px;font-family:Helvetica;-inkscape-font-specification:Helvetica;writing-mode:lr-tb;fill:#ffffff;fill-opacity:1;fill-rule:nonzero;stroke:none"
           transform="matrix(1,0,0,-1,486.45,601.38)"><tspan
             id="tspan923"
             y="0"
             x="0 5.401 9.2290001 15.345 21.461 24.518999 31.306 37.422001 42.922001 45.363998 48.422001 50.863998 56.089001 62.205002">True Positives</tspan></text>
<text
           id="text929"
           style="font-variant:normal;font-weight:normal;font-size:11px;font-family:Helvetica;-inkscape-font-specification:Helvetica;writing-mode:lr-tb;fill:#ffffff;fill-opacity:1;fill-rule:nonzero;stroke:none"
           transform="matrix(1,0,0,-1,486.45,583.51)"><tspan
             id="tspan927"
             y="0"
             x="0 5.401 9.2290001 15.345 21.461 24.518999 32.460999 38.577 44.693001 50.808998 53.867001 56.308998 61.534 67.650002">True Negatives</tspan></text>
<text
           id="text933"
           style="font-variant:normal;font-weight:normal;font-size:11px;font-family:Helvetica;-inkscape-font-specification:Helvetica;writing-mode:lr-tb;fill:#ffffff;fill-opacity:1;fill-rule:nonzero;stroke:none"
           transform="matrix(1,0,0,-1,486.45,565.64)"><tspan
             id="tspan931"
             y="0"
             x="0 6.171 12.287 14.729 20.229 26.344999 29.403 36.189999 42.306 47.806 50.248001 53.306 55.748001 60.973 67.088997">False Positives</tspan></text>
<text
           id="text937"
           style="font-variant:normal;font-weight:normal;font-size:11px;font-family:Helvetica;-inkscape-font-specification:Helvetica;writing-mode:lr-tb;fill:#ffffff;fill-opacity:1;fill-rule:nonzero;stroke:none"
           transform="matrix(1,0,0,-1,486.45,547.77)"><tspan
             id="tspan935"
             y="0"
             x="0 6.171 12.287 14.729 20.229 26.344999 29.403 37.345001 43.460999 49.577 55.693001 58.750999 61.193001 66.417999 72.533997">False Negatives</tspan></text>
</g></g></g></svg>