<?xml version="1.0" encoding="UTF-8" standalone="no"?>
<svg
   xmlns:dc="http://purl.org/dc/elements/1.1/"
   xmlns:cc="http://creativecommons.org/ns#"
   xmlns:rdf="http://www.w3.org/1999/02/22-rdf-syntax-ns#"
   xmlns:svg="http://www.w3.org/2000/svg"
   xmlns="http://www.w3.org/2000/svg"
   viewBox="0 0 684.44 664.5838"
   height="664.5838"
   width="684.44"
   xml:space="preserve"
   id="svg1199"
   version="1.1"><metadata
     id="metadata1205"><rdf:RDF><cc:Work
         rdf:about=""><dc:format>image/svg+xml</dc:format><dc:type
           rdf:resource="http://purl.org/dc/dcmitype/StillImage" /><dc:title></dc:title></cc:Work></rdf:RDF></metadata><defs
     id="defs1203"><clipPath
       id="clipPath1219"
       clipPathUnits="userSpaceOnUse"><path
         id="path1217"
         d="m 14.4,14.4 h 468 V 720 h -468 z" /></clipPath><clipPath
       id="clipPath1237"
       clipPathUnits="userSpaceOnUse"><path
         id="path1235"
         d="m 14.4,14.4 h 468 V 720 h -468 z" /></clipPath><clipPath
       id="clipPath1255"
       clipPathUnits="userSpaceOnUse"><path
         id="path1253"
         d="m 14.4,14.4 h 468 V 720 h -468 z" /></clipPath><clipPath
       id="clipPath1273"
       clipPathUnits="userSpaceOnUse"><path
         id="path1271"
         d="m 14.4,14.4 h 468 V 720 h -468 z" /></clipPath><clipPath
       id="clipPath1295"
       clipPathUnits="userSpaceOnUse"><path
         id="path1293"
         d="m 21.6,21.6 h 576 v 748.8 h -576 z" /></clipPath></defs><g
     transform="matrix(1.3333333,0,0,-1.3333333,-99.606664,914.65525)"
     id="g1207"><g
       style="stroke:#ffffff;stroke-opacity:1"
       id="g1213"><g
         style="stroke:#ffffff;stroke-opacity:1"
         clip-path="url(#clipPath1219)"
         id="g1215"><path
           id="path1221"
           style="fill:#006400;fill-opacity:1;fill-rule:nonzero;stroke:#ffffff;stroke-width:0.75;stroke-linecap:round;stroke-linejoin:round;stroke-miterlimit:10;stroke-dasharray:none;stroke-opacity:1"
           d="m 421.73,367.2 -0.1,6.04 -0.32,6.03 -0.52,6.02 -0.74,5.99 -0.94,5.96 -1.15,5.93 -1.36,5.89 -1.56,5.83 -1.76,5.78 -1.96,5.71 -2.16,5.64 L 248.4,367.2 Z" /><path
           id="path1223"
           style="fill:none;stroke:#ffffff;stroke-width:0.75;stroke-linecap:round;stroke-linejoin:round;stroke-miterlimit:10;stroke-dasharray:none;stroke-opacity:1"
           d="m 418.56,400.21 8.51,1.65" /></g></g><g
       style="fill:#ffffff;fill-opacity:1"
       id="g1225"><text
         id="text1229"
         style="font-variant:normal;font-weight:normal;font-size:12px;font-family:Helvetica;-inkscape-font-specification:Helvetica;writing-mode:lr-tb;fill:#ffffff;fill-opacity:1;fill-rule:nonzero;stroke:none"
         transform="matrix(1,0,0,-1,435.58,399.41)"><tspan
           id="tspan1227"
           y="0"
           x="0 6.6719999 10.008 16.68 20.016001">6.1 %</tspan></text>
</g><g
       style="stroke:#ffffff;stroke-opacity:1"
       id="g1231"><g
         style="stroke:#ffffff;stroke-opacity:1"
         clip-path="url(#clipPath1237)"
         id="g1233"><path
           id="path1239"
           style="fill:#01ff00;fill-opacity:1;fill-rule:nonzero;stroke:#ffffff;stroke-width:0.75;stroke-linecap:round;stroke-linejoin:round;stroke-miterlimit:10;stroke-dasharray:none;stroke-opacity:1"
           d="m 409.16,432.02 -2.15,5.08 -2.3,5.02 -2.47,4.93 -2.62,4.86 -2.77,4.77 -2.92,4.68 -3.07,4.58 -3.22,4.49 -3.35,4.37 -3.49,4.27 -3.63,4.16 -3.76,4.04 -3.89,3.92 -4,3.79 -4.13,3.66 -4.24,3.53 -4.35,3.4 -4.46,3.25 -4.55,3.11 -4.66,2.96 -4.74,2.81 -4.84,2.66 -4.91,2.51 -5,2.35 -5.06,2.18 -5.13,2.03 -5.2,1.86 -5.25,1.69 -5.3,1.53 -5.35,1.36 -5.39,1.18 -5.42,1.02 -5.45,0.84 -5.48,0.66 -5.49,0.5 -5.51,0.31 -5.52,0.15 -5.51,-0.04 -5.52,-0.21 -5.5,-0.38 -5.49,-0.56 -5.47,-0.74 -5.44,-0.91 -5.41,-1.08 -5.37,-1.25 -5.33,-1.42 -5.29,-1.59 -5.23,-1.76 -5.17,-1.93 -5.1,-2.08 -5.04,-2.25 -4.97,-2.41 -4.88,-2.57 -4.8,-2.72 -4.71,-2.87 -4.62,-3.02 -4.52,-3.16 -4.41,-3.31 -4.31,-3.45 -4.2,-3.58 -4.08,-3.71 -3.96,-3.84 -3.84,-3.97 -3.71,-4.08 -3.57,-4.2 -3.44,-4.32 -3.3,-4.42 -3.16,-4.52 -3.02,-4.62 -2.86,-4.72 -2.72,-4.8 -2.56,-4.89 -2.4,-4.96 -2.24,-5.04 -2.08,-5.11 -1.92,-5.18 -1.75,-5.23 -1.59,-5.28 -1.41,-5.34 -1.25,-5.37 -1.07,-5.41 -0.9,-5.44 -0.73,-5.47 -0.56,-5.49 -0.37,-5.51 -0.21,-5.51 -0.02,-5.52 0.15,-5.51 0.32,-5.51 0.5,-5.5 0.67,-5.47 0.85,-5.45 1.02,-5.43 1.19,-5.38 1.37,-5.35 1.53,-5.3 1.7,-5.25 1.87,-5.19 2.03,-5.13 2.19,-5.06 2.36,-4.99 2.51,-4.91 2.66,-4.83 2.82,-4.75 2.97,-4.65 3.12,-4.55 3.25,-4.45 3.4,-4.35 3.54,-4.24 3.67,-4.12 3.79,-4 3.92,-3.88 4.05,-3.75 4.16,-3.62 4.27,-3.49 4.39,-3.35 4.49,-3.21 4.58,-3.07 4.69,-2.91 4.77,-2.77 4.86,-2.61 79.66,153.94 z" /><path
           id="path1241"
           style="fill:none;stroke:#ffffff;stroke-width:0.75;stroke-linecap:round;stroke-linejoin:round;stroke-miterlimit:10;stroke-dasharray:none;stroke-opacity:1"
           d="m 131.74,495.4 -5.83,6.41" /></g></g><g
       style="fill:#ffffff;fill-opacity:1"
       id="g1243"><text
         id="text1247"
         style="font-variant:normal;font-weight:normal;font-size:12px;font-family:Helvetica;-inkscape-font-specification:Helvetica;writing-mode:lr-tb;fill:#ffffff;fill-opacity:1;fill-rule:nonzero;stroke:none"
         transform="matrix(1,0,0,-1,82.72,504.12)"><tspan
           id="tspan1245"
           y="0"
           x="0 6.6719999 13.344 16.68 23.351999 26.688">61.3 %</tspan></text>
</g><g
       style="stroke:#ffffff;stroke-opacity:1"
       id="g1249"><g
         style="stroke:#ffffff;stroke-opacity:1"
         clip-path="url(#clipPath1255)"
         id="g1251"><path
           id="path1257"
           style="fill:#ff0000;fill-opacity:1;fill-rule:nonzero;stroke:#ffffff;stroke-width:0.75;stroke-linecap:round;stroke-linejoin:round;stroke-miterlimit:10;stroke-dasharray:none;stroke-opacity:1"
           d="m 168.74,213.26 4.98,-2.48 5.06,-2.32 5.13,-2.15 5.2,-1.99 5.26,-1.82 5.31,-1.65 5.36,-1.47 5.41,-1.31 5.45,-1.13 5.48,-0.95 5.51,-0.78 5.53,-0.61 5.55,-0.42 5.56,-0.24 5.56,-0.07 5.57,0.11 5.55,0.29 5.55,0.47 5.52,0.64 5.51,0.83 5.47,1 5.44,1.17 5.4,1.35 5.35,1.52 5.3,1.69 5.24,1.86 5.18,2.03 5.12,2.19 5.04,2.36 4.96,2.52 4.88,2.67 4.79,2.83 4.69,2.99 4.6,3.13 4.5,3.28 4.39,3.42 4.27,3.56 4.16,3.69 4.04,3.83 3.92,3.95 3.78,4.08 3.66,4.2 3.51,4.31 3.38,4.42 3.23,4.53 3.08,4.63 2.94,4.73 2.78,4.82 2.63,4.9 2.46,4.99 2.31,5.07 2.14,5.13 1.98,5.2 1.8,5.26 1.64,5.32 -166.45,48.36 z" /><path
           id="path1259"
           style="fill:none;stroke:#ffffff;stroke-width:0.75;stroke-linecap:round;stroke-linejoin:round;stroke-miterlimit:10;stroke-dasharray:none;stroke-opacity:1"
           d="m 316.74,207.91 3.42,-7.97" /></g></g><g
       style="fill:#ffffff;fill-opacity:1"
       id="g1261"><text
         id="text1265"
         style="font-variant:normal;font-weight:normal;font-size:12px;font-family:Helvetica;-inkscape-font-specification:Helvetica;writing-mode:lr-tb;fill:#ffffff;fill-opacity:1;fill-rule:nonzero;stroke:none"
         transform="matrix(1,0,0,-1,323.57,187.87)"><tspan
           id="tspan1263"
           y="0"
           x="0 6.6719999 13.344 16.68 23.351999 26.688">28.1 %</tspan></text>
</g><g
       style="stroke:#ffffff;stroke-opacity:1"
       id="g1267"><g
         style="stroke:#ffffff;stroke-opacity:1"
         clip-path="url(#clipPath1273)"
         id="g1269"><path
           id="path1275"
           style="fill:#8b0000;fill-opacity:1;fill-rule:nonzero;stroke:#ffffff;stroke-width:0.75;stroke-linecap:round;stroke-linejoin:round;stroke-miterlimit:10;stroke-dasharray:none;stroke-opacity:1"
           d="m 414.85,318.84 1.61,5.91 1.39,5.97 1.18,6.01 0.97,6.05 0.76,6.08 0.54,6.1 0.33,6.12 0.1,6.12 H 248.4 Z" /><path
           id="path1277"
           style="fill:none;stroke:#ffffff;stroke-width:0.75;stroke-linecap:round;stroke-linejoin:round;stroke-miterlimit:10;stroke-dasharray:none;stroke-opacity:1"
           d="m 420,342.78 8.58,-1.22" /></g></g><g
       style="fill:#ffffff;fill-opacity:1"
       id="g1279"><text
         id="text1283"
         style="font-variant:normal;font-weight:normal;font-size:12px;font-family:Helvetica;-inkscape-font-specification:Helvetica;writing-mode:lr-tb;fill:#ffffff;fill-opacity:1;fill-rule:nonzero;stroke:none"
         transform="matrix(1,0,0,-1,437.16,336.23)"><tspan
           id="tspan1281"
           y="0"
           x="0 6.6719999 10.008 16.68 20.016001">4.5 %</tspan></text>
<text
         y="-675.96997"
         x="192.81"
         id="text1287"
         style="font-variant:normal;font-weight:bold;font-size:14px;font-family:Helvetica;-inkscape-font-specification:Helvetica-Bold;writing-mode:lr-tb;fill:#ffffff;fill-opacity:1;fill-rule:nonzero;stroke:none"
         transform="scale(1,-1)"><tspan
           id="tspan1285"
           y="-675.96997"
           x="192.81 201.364 205.256 213.81 221.59399 225.48599 229.37801 237.092 244.87601 252.66 257.32199 261.21399 271.32199 279.10599 286.89001 295.444 299.336">Final Test Result</tspan></text>
</g><g
       id="g1289"><g
         clip-path="url(#clipPath1295)"
         id="g1291"><path
           id="path1297"
           style="fill:none;fill-opacity:1;fill-rule:nonzero;stroke:#ffffff;stroke-width:0.75;stroke-linecap:round;stroke-linejoin:round;stroke-miterlimit:10;stroke-dasharray:none;stroke-opacity:1"
           d="M 400.07,648.87 H 587.66 V 543.23 H 400.07 Z" /><path
           id="path1299"
           style="fill:#006400;fill-opacity:1;fill-rule:nonzero;stroke:#ffffff;stroke-width:0.75;stroke-linecap:round;stroke-linejoin:round;stroke-miterlimit:10;stroke-dasharray:none;stroke-opacity:1"
           d="M 412.81,633.02 H 423 v -10.56 h -10.19 z" /><path
           id="path1301"
           style="fill:#01ff00;fill-opacity:1;fill-rule:nonzero;stroke:#ffffff;stroke-width:0.75;stroke-linecap:round;stroke-linejoin:round;stroke-miterlimit:10;stroke-dasharray:none;stroke-opacity:1"
           d="M 412.81,611.89 H 423 v -10.56 h -10.19 z" /><path
           id="path1303"
           style="fill:#ff0000;fill-opacity:1;fill-rule:nonzero;stroke:#ffffff;stroke-width:0.75;stroke-linecap:round;stroke-linejoin:round;stroke-miterlimit:10;stroke-dasharray:none;stroke-opacity:1"
           d="M 412.81,590.76 H 423 V 580.2 h -10.19 z" /><path
           id="path1305"
           style="fill:#8b0000;fill-opacity:1;fill-rule:nonzero;stroke:#ffffff;stroke-width:0.75;stroke-linecap:round;stroke-linejoin:round;stroke-miterlimit:10;stroke-dasharray:none;stroke-opacity:1"
           d="M 412.81,569.63 H 423 v -10.56 h -10.19 z" /><text
           id="text1309"
           style="font-variant:normal;font-weight:normal;font-size:11px;font-family:Helvetica;-inkscape-font-specification:Helvetica;writing-mode:lr-tb;fill:#ffffff;fill-opacity:1;fill-rule:nonzero;stroke:none"
           transform="matrix(1,0,0,-1,435.74,623.79)"><tspan
             id="tspan1307"
             y="0"
             x="0 5.401 9.2290001 15.345 21.461 24.518999 31.306 37.422001 42.922001 45.363998 48.422001 50.863998 56.089001 62.205002">True Positives</tspan></text>
<text
           id="text1313"
           style="font-variant:normal;font-weight:normal;font-size:11px;font-family:Helvetica;-inkscape-font-specification:Helvetica;writing-mode:lr-tb;fill:#ffffff;fill-opacity:1;fill-rule:nonzero;stroke:none"
           transform="matrix(1,0,0,-1,435.74,602.66)"><tspan
             id="tspan1311"
             y="0"
             x="0 5.401 9.2290001 15.345 21.461 24.518999 32.460999 38.577 44.693001 50.808998 53.867001 56.308998 61.534 67.650002">True Negatives</tspan></text>
<text
           id="text1317"
           style="font-variant:normal;font-weight:normal;font-size:11px;font-family:Helvetica;-inkscape-font-specification:Helvetica;writing-mode:lr-tb;fill:#ffffff;fill-opacity:1;fill-rule:nonzero;stroke:none"
           transform="matrix(1,0,0,-1,435.74,581.53)"><tspan
             id="tspan1315"
             y="0"
             x="0 6.171 12.287 14.729 20.229 26.344999 29.403 36.189999 42.306 47.806 50.248001 53.306 55.748001 60.973 67.088997">False Positives</tspan></text>
<text
           id="text1321"
           style="font-variant:normal;font-weight:normal;font-size:11px;font-family:Helvetica;-inkscape-font-specification:Helvetica;writing-mode:lr-tb;fill:#ffffff;fill-opacity:1;fill-rule:nonzero;stroke:none"
           transform="matrix(1,0,0,-1,435.74,560.4)"><tspan
             id="tspan1319"
             y="0"
             x="0 6.171 12.287 14.729 20.229 26.344999 29.403 37.345001 43.460999 49.577 55.693001 58.750999 61.193001 66.417999 72.533997">False Negatives</tspan></text>
</g></g></g></svg>