<?xml version="1.0" encoding="UTF-8" standalone="no"?>
<!-- Created with Inkscape (http://www.inkscape.org/) -->

<svg
   xmlns:dc="http://purl.org/dc/elements/1.1/"
   xmlns:cc="http://creativecommons.org/ns#"
   xmlns:rdf="http://www.w3.org/1999/02/22-rdf-syntax-ns#"
   xmlns:svg="http://www.w3.org/2000/svg"
   xmlns="http://www.w3.org/2000/svg"
   xmlns:sodipodi="http://sodipodi.sourceforge.net/DTD/sodipodi-0.dtd"
   xmlns:inkscape="http://www.inkscape.org/namespaces/inkscape"
   version="1.1"
   id="svg941"
   xml:space="preserve"
   width="689.3559"
   height="649.95715"
   viewBox="0 0 689.3559 649.95715"
   sodipodi:docname="pie_knn.svg"
   inkscape:version="0.92.4 (5da689c313, 2019-01-14)"><metadata
     id="metadata947"><rdf:RDF><cc:Work
         rdf:about=""><dc:format>image/svg+xml</dc:format><dc:type
           rdf:resource="http://purl.org/dc/dcmitype/StillImage" /><dc:title></dc:title></cc:Work></rdf:RDF></metadata><defs
     id="defs945"><clipPath
       clipPathUnits="userSpaceOnUse"
       id="clipPath961"><path
         d="m 14.4,14.4 h 468 V 720 h -468 z"
         id="path959"
         inkscape:connector-curvature="0" /></clipPath><clipPath
       clipPathUnits="userSpaceOnUse"
       id="clipPath979"><path
         d="m 14.4,14.4 h 468 V 720 h -468 z"
         id="path977"
         inkscape:connector-curvature="0" /></clipPath><clipPath
       clipPathUnits="userSpaceOnUse"
       id="clipPath997"><path
         d="m 14.4,14.4 h 468 V 720 h -468 z"
         id="path995"
         inkscape:connector-curvature="0" /></clipPath><clipPath
       clipPathUnits="userSpaceOnUse"
       id="clipPath1015"><path
         d="m 14.4,14.4 h 468 V 720 h -468 z"
         id="path1013"
         inkscape:connector-curvature="0" /></clipPath><clipPath
       clipPathUnits="userSpaceOnUse"
       id="clipPath1037"><path
         d="m 21.6,21.6 h 576 v 748.8 h -576 z"
         id="path1035"
         inkscape:connector-curvature="0" /></clipPath></defs><sodipodi:namedview
     pagecolor="#8e8e8e"
     bordercolor="#666666"
     borderopacity="1"
     objecttolerance="10"
     gridtolerance="10"
     guidetolerance="10"
     inkscape:pageopacity="0"
     inkscape:pageshadow="2"
     inkscape:window-width="3840"
     inkscape:window-height="2035"
     id="namedview943"
     showgrid="false"
     fit-margin-top="0"
     fit-margin-left="0"
     fit-margin-right="0"
     fit-margin-bottom="0"
     inkscape:zoom="1.6647727"
     inkscape:cx="131.45589"
     inkscape:cy="398.74137"
     inkscape:window-x="-13"
     inkscape:window-y="-13"
     inkscape:window-maximized="1"
     inkscape:current-layer="g949" /><g
     id="g949"
     inkscape:groupmode="layer"
     inkscape:label="3KNN_pie_TestingResult"
     transform="matrix(1.3333333,0,0,-1.3333333,-94.690727,906.65525)"><g
       id="g955"><g
         id="g957"
         clip-path="url(#clipPath961)"><path
           d="m 421.73,367.2 -0.1,6.03 -0.32,6.02 -0.52,6.01 -0.73,5.99 -0.94,5.96 -1.15,5.92 -1.35,5.88 -1.56,5.83 -1.76,5.77 -1.96,5.7 -2.15,5.64 -2.35,5.55 -2.55,5.47 -2.73,5.38 -2.91,5.28 L 248.4,367.2 Z"
           style="fill:#006400;fill-opacity:1;fill-rule:nonzero;stroke:#ffffff;stroke-width:0.75;stroke-linecap:round;stroke-linejoin:round;stroke-miterlimit:10;stroke-dasharray:none;stroke-opacity:1"
           id="path963"
           inkscape:connector-curvature="0" /><path
           d="m 415.86,411.93 8.38,2.24"
           style="fill:none;stroke:#ffffff;stroke-width:0.75;stroke-linecap:round;stroke-linejoin:round;stroke-miterlimit:10;stroke-dasharray:none;stroke-opacity:1"
           id="path965"
           inkscape:connector-curvature="0" /></g></g><g
       id="g967"><text
         transform="matrix(1,0,0,-1,432.61,412.3)"
         style="font-variant:normal;font-weight:normal;font-size:12px;font-family:Helvetica;-inkscape-font-specification:Helvetica;writing-mode:lr-tb;fill:#ffffff;fill-opacity:1;fill-rule:nonzero;stroke:none"
         id="text971"><tspan
           x="0 6.6719999 10.008 16.68 20.016001"
           y="0"
           sodipodi:role="line"
           id="tspan969">8.3 %</tspan></text>
</g><g
       id="g973"><g
         id="g975"
         clip-path="url(#clipPath979)"><path
           d="m 398.65,453.63 -2.83,4.74 -2.97,4.64 -3.13,4.55 -3.26,4.44 -3.4,4.34 -3.54,4.23 -3.68,4.12 -3.8,3.99 -3.93,3.87 -4.05,3.75 -4.16,3.61 -4.28,3.48 -4.39,3.35 -4.49,3.2 -4.59,3.05 -4.69,2.91 -4.77,2.76 -4.86,2.6 -4.95,2.45 -5.01,2.29 -5.09,2.13 -5.15,1.97 -5.22,1.8 -5.26,1.64 -5.32,1.46 -5.36,1.3 -5.4,1.13 -5.43,0.95 -5.46,0.78 -5.48,0.61 -5.5,0.43 -5.51,0.25 -5.52,0.08 -5.51,-0.09 -5.51,-0.27 -5.5,-0.45 -5.48,-0.62 -5.46,-0.79 -5.42,-0.97 -5.4,-1.14 -5.36,-1.31 -5.31,-1.48 -5.26,-1.65 -5.21,-1.81 -5.15,-1.98 -5.08,-2.15 -5.01,-2.3 -4.94,-2.46 -4.85,-2.62 -4.77,-2.77 -4.68,-2.92 -4.58,-3.07 -4.49,-3.21 -4.37,-3.36 -4.27,-3.49 -4.16,-3.62 -4.04,-3.76 -3.92,-3.88 -3.79,-4.01 -3.66,-4.12 -3.53,-4.24 -3.39,-4.35 -3.26,-4.45 -3.11,-4.56 -2.96,-4.65 -2.81,-4.74 -2.66,-4.83 -2.51,-4.92 -2.35,-4.99 -2.19,-5.06 -2.02,-5.13 -1.87,-5.19 -1.69,-5.25 -1.53,-5.3 -1.36,-5.34 -1.19,-5.39 -1.01,-5.42 -0.85,-5.45 -0.67,-5.47 -0.49,-5.5 -0.32,-5.5 -0.14,-5.52 0.03,-5.51 0.2,-5.51 0.39,-5.51 0.55,-5.48 0.73,-5.47 0.91,-5.44 1.07,-5.41 1.25,-5.37 1.42,-5.33 1.59,-5.28 1.75,-5.23 1.92,-5.17 2.09,-5.11 2.24,-5.04 2.41,-4.96 2.56,-4.88 2.71,-4.8 2.87,-4.72 3.02,-4.61 3.16,-4.52 3.3,-4.42 3.44,-4.31 3.58,-4.2 3.71,-4.08 3.83,-3.96 3.96,-3.84 4.09,-3.71 4.19,-3.58 4.31,-3.44 4.42,-3.31 4.52,-3.16 4.61,-3.02 4.71,-2.86 4.8,-2.72 4.89,-2.56 4.96,-2.41 73.13,157.15 z"
           style="fill:#01ff00;fill-opacity:1;fill-rule:nonzero;stroke:#ffffff;stroke-width:0.75;stroke-linecap:round;stroke-linejoin:round;stroke-miterlimit:10;stroke-dasharray:none;stroke-opacity:1"
           id="path981"
           inkscape:connector-curvature="0" /><path
           d="m 120.65,484.35 -6.39,5.86"
           style="fill:none;fill-opacity:1;stroke:#ffffff;stroke-width:0.75;stroke-linecap:round;stroke-linejoin:round;stroke-miterlimit:10;stroke-dasharray:none;stroke-opacity:1"
           id="path983"
           inkscape:connector-curvature="0" /></g></g><g
       id="g985"><text
         transform="matrix(1,0,0,-1,70.52,491.96)"
         style="font-variant:normal;font-weight:normal;font-size:12px;font-family:Helvetica;-inkscape-font-specification:Helvetica;writing-mode:lr-tb;fill:#ffffff;fill-opacity:1;fill-rule:nonzero;stroke:none"
         id="text989"><tspan
           x="0 6.6719999 13.344 16.68 23.351999 26.688"
           y="0"
           sodipodi:role="line"
           id="tspan987">59.7 %</tspan></text>
</g><g
       id="g991"><g
         id="g993"
         clip-path="url(#clipPath997)"><path
           d="m 175.27,210.05 5.1,-2.28 5.18,-2.11 5.23,-1.94 5.3,-1.77 5.36,-1.6 5.4,-1.43 5.44,-1.25 5.48,-1.07 5.52,-0.9 5.54,-0.72 5.56,-0.55 5.57,-0.36 5.59,-0.18 h 5.59 l 5.58,0.18 5.57,0.35 5.57,0.54 5.54,0.72 5.51,0.89 5.48,1.07 5.45,1.25 5.4,1.42 5.36,1.6 5.3,1.77 5.24,1.93 5.17,2.11 5.11,2.27 5.03,2.44 4.94,2.59 4.86,2.75 4.77,2.91 4.68,3.06 4.57,3.21 4.47,3.36 4.35,3.5 4.25,3.63 4.12,3.78 4,3.9 3.87,4.03 3.74,4.15 3.6,4.27 3.46,4.38 3.32,4.49 3.18,4.6 3.02,4.7 2.87,4.79 2.72,4.89 2.55,4.96 2.4,5.05 2.23,5.12 2.06,5.19 1.9,5.26 1.73,5.31 1.55,5.37 1.38,5.41 1.2,5.46 -169.83,34.65 z"
           style="fill:#ff0000;fill-opacity:1;fill-rule:nonzero;stroke:#ffffff;stroke-width:0.75;stroke-linecap:round;stroke-linejoin:round;stroke-miterlimit:10;stroke-dasharray:none;stroke-opacity:1"
           id="path999"
           inkscape:connector-curvature="0" /><path
           d="m 326.44,212.43 3.9,-7.74"
           style="fill:none;stroke:#ffffff;stroke-width:0.75;stroke-linecap:round;stroke-linejoin:round;stroke-miterlimit:10;stroke-dasharray:none;stroke-opacity:1"
           id="path1001"
           inkscape:connector-curvature="0" /></g></g><g
       id="g1003"><text
         transform="matrix(1,0,0,-1,334.24,192.84)"
         style="font-variant:normal;font-weight:normal;font-size:12px;font-family:Helvetica;-inkscape-font-specification:Helvetica;writing-mode:lr-tb;fill:#ffffff;fill-opacity:1;fill-rule:nonzero;stroke:none"
         id="text1007"><tspan
           x="0 6.6719999 13.344 16.68 23.351999 26.688"
           y="0"
           sodipodi:role="line"
           id="tspan1005">28.7 %</tspan></text>
</g><g
       id="g1009"><g
         id="g1011"
         clip-path="url(#clipPath1015)"><path
           d="m 418.23,332.55 1.26,6.86 0.98,6.91 0.7,6.94 0.42,6.96 0.14,6.98 H 248.4 Z"
           style="fill:#8b0000;fill-opacity:1;fill-rule:nonzero;stroke:#ffffff;stroke-width:0.75;stroke-linecap:round;stroke-linejoin:round;stroke-miterlimit:10;stroke-dasharray:none;stroke-opacity:1"
           id="path1017"
           inkscape:connector-curvature="0" /><path
           d="m 420.86,349.79 8.62,-0.87"
           style="fill:none;stroke:#ffffff;stroke-width:0.75;stroke-linecap:round;stroke-linejoin:round;stroke-miterlimit:10;stroke-dasharray:none;stroke-opacity:1"
           id="path1019"
           inkscape:connector-curvature="0" /></g></g><g
       id="g1021"><text
         transform="matrix(1,0,0,-1,438.1,343.94)"
         style="font-variant:normal;font-weight:normal;font-size:12px;font-family:Helvetica;-inkscape-font-specification:Helvetica;writing-mode:lr-tb;fill:#ffffff;fill-opacity:1;fill-rule:nonzero;stroke:none"
         id="text1025"><tspan
           x="0 6.6719999 10.008 16.68 20.016001"
           y="0"
           sodipodi:role="line"
           id="tspan1023">3.2 %</tspan></text>
<text
         transform="scale(1,-1)"
         style="font-variant:normal;font-weight:bold;font-size:14px;font-family:Helvetica;-inkscape-font-specification:Helvetica-Bold;writing-mode:lr-tb;fill:#ffffff;fill-opacity:1;fill-rule:nonzero;stroke:none;stroke-opacity:1"
         id="text1029"
         x="192.81"
         y="-669.96997"><tspan
           x="192.81 201.364 205.256 213.81 221.59399 225.48599 229.37801 237.092 244.87601 252.66 257.32199 261.21399 271.32199 279.10599 286.89001 295.444 299.336"
           y="-669.96997"
           sodipodi:role="line"
           id="tspan1027">Final Test Result</tspan></text>
</g><g
       id="g1031"><g
         id="g1033"
         clip-path="url(#clipPath1037)"><path
           d="M 400.07,648.87 H 587.66 V 543.23 H 400.07 Z"
           style="fill:none;fill-opacity:1;fill-rule:nonzero;stroke:#ffffff;stroke-width:0.75;stroke-linecap:round;stroke-linejoin:round;stroke-miterlimit:10;stroke-dasharray:none;stroke-opacity:1"
           id="path1039"
           inkscape:connector-curvature="0" /><path
           d="M 412.81,633.02 H 423 v -10.56 h -10.19 z"
           style="fill:#006400;fill-opacity:1;fill-rule:nonzero;stroke:#ffffff;stroke-width:0.75;stroke-linecap:round;stroke-linejoin:round;stroke-miterlimit:10;stroke-dasharray:none;stroke-opacity:1"
           id="path1041"
           inkscape:connector-curvature="0" /><path
           d="M 412.81,611.89 H 423 v -10.56 h -10.19 z"
           style="fill:#01ff00;fill-opacity:1;fill-rule:nonzero;stroke:#ffffff;stroke-width:0.75;stroke-linecap:round;stroke-linejoin:round;stroke-miterlimit:10;stroke-dasharray:none;stroke-opacity:1"
           id="path1043"
           inkscape:connector-curvature="0" /><path
           d="M 412.81,590.76 H 423 V 580.2 h -10.19 z"
           style="fill:#ff0000;fill-opacity:1;fill-rule:nonzero;stroke:#ffffff;stroke-width:0.75;stroke-linecap:round;stroke-linejoin:round;stroke-miterlimit:10;stroke-dasharray:none;stroke-opacity:1"
           id="path1045"
           inkscape:connector-curvature="0" /><path
           d="M 412.81,569.63 H 423 v -10.56 h -10.19 z"
           style="fill:#8b0000;fill-opacity:1;fill-rule:nonzero;stroke:#ffffff;stroke-width:0.75;stroke-linecap:round;stroke-linejoin:round;stroke-miterlimit:10;stroke-dasharray:none;stroke-opacity:1"
           id="path1047"
           inkscape:connector-curvature="0" /><text
           transform="matrix(1,0,0,-1,435.74,623.79)"
           style="font-variant:normal;font-weight:normal;font-size:11px;font-family:Helvetica;-inkscape-font-specification:Helvetica;writing-mode:lr-tb;fill:#ffffff;fill-opacity:1;fill-rule:nonzero;stroke:none"
           id="text1051"><tspan
             x="0 5.401 9.2290001 15.345 21.461 24.518999 31.306 37.422001 42.922001 45.363998 48.422001 50.863998 56.089001 62.205002"
             y="0"
             sodipodi:role="line"
             id="tspan1049">True Positives</tspan></text>
<text
           transform="matrix(1,0,0,-1,435.74,602.66)"
           style="font-variant:normal;font-weight:normal;font-size:11px;font-family:Helvetica;-inkscape-font-specification:Helvetica;writing-mode:lr-tb;fill:#ffffff;fill-opacity:1;fill-rule:nonzero;stroke:none"
           id="text1055"><tspan
             x="0 5.401 9.2290001 15.345 21.461 24.518999 32.460999 38.577 44.693001 50.808998 53.867001 56.308998 61.534 67.650002"
             y="0"
             sodipodi:role="line"
             id="tspan1053">True Negatives</tspan></text>
<text
           transform="matrix(1,0,0,-1,435.74,581.53)"
           style="font-variant:normal;font-weight:normal;font-size:11px;font-family:Helvetica;-inkscape-font-specification:Helvetica;writing-mode:lr-tb;fill:#ffffff;fill-opacity:1;fill-rule:nonzero;stroke:none"
           id="text1059"><tspan
             x="0 6.171 12.287 14.729 20.229 26.344999 29.403 36.189999 42.306 47.806 50.248001 53.306 55.748001 60.973 67.088997"
             y="0"
             sodipodi:role="line"
             id="tspan1057">False Positives</tspan></text>
<text
           transform="matrix(1,0,0,-1,435.74,560.4)"
           style="font-variant:normal;font-weight:normal;font-size:11px;font-family:Helvetica;-inkscape-font-specification:Helvetica;writing-mode:lr-tb;fill:#ffffff;fill-opacity:1;fill-rule:nonzero;stroke:none"
           id="text1063"><tspan
             x="0 6.171 12.287 14.729 20.229 26.344999 29.403 37.345001 43.460999 49.577 55.693001 58.750999 61.193001 66.417999 72.533997"
             y="0"
             sodipodi:role="line"
             id="tspan1061">False Negatives</tspan></text>
</g></g></g></svg>